<svg width="64" height="64" viewBox="0 0 64 64" fill="none" xmlns="http://www.w3.org/2000/svg">
<path d="M24.5076 57.0076C24.7026 56.8127 24.9745 56.7 25.25 56.7C25.5255 56.7 25.7974 56.8127 25.9924 57.0076C26.1873 57.2026 26.3 57.4745 26.3 57.75C26.3 58.0255 26.1873 58.2974 25.9924 58.4924C25.7974 58.6873 25.5255 58.8 25.25 58.8C24.9745 58.8 24.7026 58.6873 24.5076 58.4924C24.3127 58.2974 24.2 58.0255 24.2 57.75C24.2 57.4745 24.3127 57.2026 24.5076 57.0076Z" fill="url(#paint0_linear)" stroke="white" stroke-width="0.4"/>
<path d="M50.3 22.7627V23.2455L50.6414 22.9041L56.3641 17.1815C58.0623 15.4832 60.8258 15.4832 62.5241 17.1815C64.2224 18.8797 64.2224 21.6432 62.5241 23.3415L50.3586 35.5075L50.3 35.5661V35.6489V59.75C50.3 61.9828 48.4828 63.8 46.25 63.8H4.25C2.0172 63.8 0.2 61.9828 0.2 59.75V4.25C0.2 2.0172 2.0172 0.2 4.25 0.2H46.25C48.4828 0.2 50.3 2.0172 50.3 4.25V22.7627ZM48.1414 25.4041L48.2 25.3455V25.2627V4.25C48.2 3.1747 47.3253 2.3 46.25 2.3H35.896H35.696V2.5V5V5.2H35.896H44.25C44.83 5.2 45.3 5.67003 45.3 6.25V27.7627V28.2455L45.6414 27.9041L48.1414 25.4041ZM40.9921 38.4494L40.7803 38.9253L41.2561 38.7135L45.0472 37.026L45.313 36.9076L45.1072 36.7018L43.0037 34.5983L42.7979 34.3925L42.6796 34.6584L40.9921 38.4494ZM33.596 2.5V2.3H33.396H17.104H16.904V2.5V7.59375C16.904 8.4796 17.6244 9.2 18.5103 9.2H31.9897C32.8756 9.2 33.596 8.4796 33.596 7.59375V2.5ZM14.804 2.5V2.3H14.604H4.25C3.1747 2.3 2.3 3.1747 2.3 4.25V59.75C2.3 60.8253 3.1747 61.7 4.25 61.7H46.25C47.3253 61.7 48.2 60.8253 48.2 59.75V38.147V37.6784L47.8616 38.0025C47.7731 38.0874 47.6726 38.1556 47.5628 38.2044L47.5627 38.2045L45.4187 39.1591L45.3 39.2119V39.3418V57.75C45.3 58.3299 44.8295 58.8 44.25 58.8H30.25C29.67 58.8 29.2 58.33 29.2 57.75C29.2 57.17 29.67 56.7 30.25 56.7H43H43.2V56.5V40.4551V40.1471L42.9186 40.2724L39.1355 41.9569C38.9981 42.018 38.853 42.0476 38.7085 42.0476C38.4358 42.0476 38.167 41.9409 37.9655 41.7398C37.6584 41.4321 37.5724 40.9675 37.7491 40.57L41.5009 32.1432C41.5536 32.0256 41.6272 31.9183 41.7179 31.8272C41.7179 31.8272 41.7179 31.8271 41.7179 31.8271L43.1414 30.4041L43.2 30.3456V30.2627V7.5V7.3H43H35.896H35.696V7.5V7.59375C35.696 9.6371 34.0331 11.3 31.9897 11.3H18.5103C16.4669 11.3 14.804 9.6371 14.804 7.59375V7.5V7.3H14.604H7.5H7.3V7.5V56.5V56.7H7.5H20.25C20.83 56.7 21.3 57.17 21.3 57.75C21.3 58.33 20.83 58.8 20.25 58.8H6.25C5.67003 58.8 5.2 58.33 5.2 57.75V6.25C5.2 5.67003 5.67003 5.2 6.25 5.2H14.604H14.804V5V2.5ZM46.9943 35.619L47.1357 35.7604L47.2772 35.619L56.3802 26.5154L58.5481 24.348L58.6896 24.2066L58.5482 24.0651L55.6404 21.1574L55.499 21.016L55.3576 21.1574L44.0866 32.4284L43.9452 32.5698L44.0866 32.7112L46.9943 35.619ZM61.0393 21.8568L61.0394 21.8567C61.9187 20.9769 61.9188 19.5461 61.0394 18.6667C60.1595 17.7868 58.7287 17.7868 57.8488 18.6667L57.1257 19.3898L56.9842 19.5312L57.1257 19.6727L60.0329 22.5799L60.1743 22.7213L60.3157 22.5799L61.0393 21.8568Z" fill="url(#paint1_linear)" stroke="white" stroke-width="0.4"/>
<path d="M19 23.2H19.2V23V17.5V17.3H19H13.5H13.3V17.5V23V23.2H13.5H19ZM12.25 15.2H20.25C20.83 15.2 21.3 15.67 21.3 16.25V24.25C21.3 24.83 20.83 25.3 20.25 25.3H12.25C11.67 25.3 11.2 24.83 11.2 24.25V16.25C11.2 15.67 11.67 15.2 12.25 15.2Z" fill="url(#paint2_linear)" stroke="white" stroke-width="0.4"/>
<path d="M19 36.95H19.2V36.75V31.25V31.05H19H13.5H13.3V31.25V36.75V36.95H13.5H19ZM12.25 28.95H20.25C20.83 28.95 21.3 29.42 21.3 30V38C21.3 38.58 20.83 39.05 20.25 39.05H12.25C11.67 39.05 11.2 38.58 11.2 38V30C11.2 29.42 11.67 28.95 12.25 28.95Z" fill="url(#paint3_linear)" stroke="white" stroke-width="0.4"/>
<path d="M19 50.7H19.2V50.5V45V44.8H19H13.5H13.3V45V50.5V50.7H13.5H19ZM12.25 42.7H20.25C20.83 42.7 21.3 43.17 21.3 43.75V51.75C21.3 52.33 20.83 52.8 20.25 52.8H12.25C11.67 52.8 11.2 52.33 11.2 51.75V43.75C11.2 43.17 11.67 42.7 12.25 42.7Z" fill="url(#paint4_linear)" stroke="white" stroke-width="0.4"/>
<path d="M30.0811 21.5866L29.9396 21.4451L28.0427 19.5482C27.6325 19.138 26.9681 19.1379 26.5574 19.5482C26.1477 19.9585 26.1478 20.6233 26.5574 21.0329L29.3387 23.8141C29.5438 24.0193 29.8121 24.1218 30.0811 24.1218C30.35 24.1218 30.6183 24.0193 30.8234 23.8141L36.467 18.1706C36.8766 17.761 36.8767 17.0961 36.467 16.6859C36.467 16.6858 36.4669 16.6858 36.4669 16.6858M30.0811 21.5866L36.4669 16.6858M30.0811 21.5866L30.2225 21.4451L34.9818 16.6859C35.3919 16.2757 36.0567 16.2757 36.4669 16.6858M30.0811 21.5866L36.4669 16.6858" fill="url(#paint5_linear)" stroke="white" stroke-width="0.4"/>
<path d="M29.3387 37.5641L29.3387 37.5641C29.5356 37.7611 29.8026 37.8718 30.0811 37.8718C30.3595 37.8718 30.6265 37.7611 30.8234 37.5641L30.8234 37.5641L36.4669 31.9211C36.4669 31.9211 36.467 31.9211 36.467 31.9211C36.8766 31.5109 36.8767 30.8461 36.467 30.4359C36.467 30.4359 36.467 30.4358 36.4669 30.4358M29.3387 37.5641L34.8403 30.2944C35.3286 29.8066 36.1201 29.8066 36.6084 30.2944L36.4669 30.4358M29.3387 37.5641L26.5575 34.7835C26.1477 34.3732 26.1478 33.7084 26.5574 33.2987C26.9681 32.8884 27.6325 32.8885 28.0427 33.2986L29.9396 35.1956L30.0811 35.337M29.3387 37.5641L30.0811 35.337M36.4669 30.4358C36.0567 30.0262 35.3919 30.0262 34.9818 30.4358L36.4669 30.4358ZM30.0811 35.337L30.2225 35.1956M30.0811 35.337L30.2225 35.1956M30.2225 35.1956L34.9817 30.4359L30.2225 35.1956Z" fill="url(#paint6_linear)" stroke="white" stroke-width="0.4"/>
<path d="M31.6536 49.3766L31.5122 49.2352L31.3708 49.3766L29.4333 51.3141C29.2281 51.5193 28.9598 51.6218 28.6909 51.6218C28.422 51.6218 28.1532 51.5193 27.9481 51.3142C27.5383 50.904 27.5384 50.2391 27.9481 49.8294L29.8861 47.8914L30.0275 47.75L29.8861 47.6086L27.9481 45.6706C27.5384 45.261 27.5383 44.5961 27.9481 44.1858C28.3587 43.7757 29.0231 43.7761 29.4334 44.1859L31.3708 46.1234L31.5122 46.2648L31.6536 46.1234L33.5916 44.1859L33.5916 44.1859C34.0018 43.7757 34.6662 43.7757 35.0764 44.1859C35.4866 44.5961 35.4865 45.2609 35.0764 45.6705L35.0763 45.6706L33.1388 47.6086L32.9975 47.75L33.1388 47.8914L35.0763 49.8294L35.0764 49.8295C35.4865 50.2391 35.4866 50.9039 35.0764 51.3141C34.8712 51.5193 34.6029 51.6218 34.334 51.6218C34.0651 51.6218 33.7968 51.5193 33.5916 51.3141L33.5916 51.3141L31.6536 49.3766Z" fill="url(#paint7_linear)" stroke="white" stroke-width="0.4"/>
<defs>
<linearGradient id="paint0_linear" x1="24" y1="57.75" x2="26.5" y2="57.75" gradientUnits="userSpaceOnUse">
<stop stop-color="#EA0000"/>
<stop offset="1" stop-color="#F5492F"/>
</linearGradient>
<linearGradient id="paint1_linear" x1="-8.38166e-08" y1="31.9998" x2="63.9978" y2="31.9998" gradientUnits="userSpaceOnUse">
<stop stop-color="#EA0000"/>
<stop offset="1" stop-color="#F5492F"/>
</linearGradient>
<linearGradient id="paint2_linear" x1="11" y1="20.25" x2="21.5" y2="20.25" gradientUnits="userSpaceOnUse">
<stop stop-color="#EA0000"/>
<stop offset="1" stop-color="#F5492F"/>
</linearGradient>
<linearGradient id="paint3_linear" x1="11" y1="34" x2="21.5" y2="34" gradientUnits="userSpaceOnUse">
<stop stop-color="#EA0000"/>
<stop offset="1" stop-color="#F5492F"/>
</linearGradient>
<linearGradient id="paint4_linear" x1="11" y1="47.75" x2="21.5" y2="47.75" gradientUnits="userSpaceOnUse">
<stop stop-color="#EA0000"/>
<stop offset="1" stop-color="#F5492F"/>
</linearGradient>
<linearGradient id="paint5_linear" x1="26.0502" y1="20.25" x2="36.9742" y2="20.25" gradientUnits="userSpaceOnUse">
<stop stop-color="#EA0000"/>
<stop offset="1" stop-color="#F5492F"/>
</linearGradient>
<linearGradient id="paint6_linear" x1="26.0502" y1="34.0002" x2="36.9742" y2="34.0002" gradientUnits="userSpaceOnUse">
<stop stop-color="#EA0000"/>
<stop offset="1" stop-color="#F5492F"/>
</linearGradient>
<linearGradient id="paint7_linear" x1="27.4408" y1="47.75" x2="35.584" y2="47.75" gradientUnits="userSpaceOnUse">
<stop stop-color="#EA0000"/>
<stop offset="1" stop-color="#F5492F"/>
</linearGradient>
</defs>
</svg>
