<svg width="64" height="64" viewBox="0 0 64 64" fill="none" xmlns="http://www.w3.org/2000/svg">
<g clip-path="url(#clip0)">
<path d="M60.7077 24.5794L55.2021 24.0488C54.6179 21.7048 53.6747 19.465 52.4067 17.4085L55.916 13.1719C56.2608 12.7562 56.2322 12.147 55.8507 11.7655L49.8957 5.80997C49.5142 5.42849 48.905 5.40041 48.4893 5.7446L44.2496 9.255C42.1896 7.99618 39.9523 7.05347 37.6124 6.45853L37.0813 0.945263C37.0297 0.409052 36.5788 0 36.04 0H27.9013C27.3626 0 26.9122 0.409052 26.8606 0.945263L26.329 6.45853C23.989 7.05296 21.7518 7.99618 19.6917 9.255L15.4521 5.74358C15.0369 5.39939 14.4276 5.42747 14.0457 5.80895L8.09065 11.765C7.70918 12.147 7.68058 12.7562 8.02529 13.1719L11.5336 17.408C10.2646 19.4644 9.32088 21.7048 8.73615 24.0493L3.23361 24.5804C2.69842 24.6325 2.29141 25.0834 2.29396 25.6212V34.0637C2.2909 34.6009 2.69791 35.0523 3.2331 35.1044L8.74228 35.6355C9.3362 37.9749 10.2784 40.2127 11.5367 42.2728L8.02478 46.5119C7.66475 46.9465 7.71429 47.5884 8.13713 47.9628L12.6541 51.9578C12.8772 52.1554 13.1744 52.2484 13.4711 52.2131C13.7673 52.1774 14.0344 52.017 14.205 51.7724L20.6967 42.4577C20.9863 42.042 20.9362 41.4782 20.5777 41.1197C14.3495 34.8915 14.349 24.7928 20.5777 18.5641C26.8064 12.3354 36.9051 12.3354 43.1338 18.5641C49.3625 24.7928 49.3625 34.8915 43.1338 41.1197C42.7707 41.4828 42.7248 42.0553 43.025 42.4715L49.745 51.7857C49.9176 52.0252 50.1837 52.1804 50.4773 52.2131C50.771 52.2458 51.0646 52.1529 51.2857 51.9573L55.8042 47.9638C56.2271 47.59 56.2771 46.9475 55.9166 46.5124L52.4057 42.2728C53.6645 40.2127 54.6072 37.9755 55.2016 35.6355L60.7077 35.1044C61.2429 35.0523 61.6499 34.6009 61.6469 34.0637V25.6201C61.6494 25.0829 61.2429 24.6315 60.7077 24.5794ZM59.5551 33.1133L54.2507 33.625C53.8003 33.6684 53.4296 33.9978 53.333 34.44C52.7565 37.0552 51.7081 39.5432 50.2399 41.7831C49.9886 42.1671 50.0172 42.6701 50.3098 43.023L53.6599 47.067L50.7659 49.6255L45.2291 41.9511C51.6402 34.8787 51.4349 23.9068 44.6127 17.0847C37.5787 10.0506 26.1329 10.0506 19.0988 17.0847C12.2731 23.9104 12.0714 34.8905 18.4921 41.9618L13.1601 49.6128L10.2809 47.0665L13.6305 43.0225C13.9231 42.6686 13.9512 42.1661 13.6999 41.782C12.2312 39.5427 11.1823 37.0547 10.6042 34.44C10.5092 33.9983 10.1395 33.6689 9.69009 33.625L4.38569 33.1133V26.571L9.69009 26.0588C10.1426 26.0149 10.5143 25.6835 10.6088 25.2387C11.1716 22.623 12.22 20.1365 13.6989 17.9069C13.9532 17.5223 13.9256 17.0168 13.6315 16.6619L10.2432 12.5708L14.8515 7.96196L18.9425 11.3498C19.2959 11.6429 19.7989 11.671 20.1825 11.4192C22.4218 9.95054 24.9098 8.90161 27.5245 8.32403C27.9672 8.22598 28.2961 7.85421 28.3395 7.40328L28.8512 2.09224H35.0901L35.6023 7.40328C35.6458 7.85421 35.9746 8.22598 36.4169 8.32403C39.0321 8.90161 41.5201 9.95105 43.7594 11.4198C44.1429 11.6715 44.6459 11.6434 44.9993 11.3503L49.0898 7.96247L53.6982 12.5708L50.3103 16.6619C50.0167 17.0168 49.9896 17.5223 50.244 17.9064C51.7234 20.136 52.7718 22.623 53.3351 25.2387C53.428 25.683 53.7988 26.0149 54.2502 26.0588L59.5551 26.5705V33.1133Z" fill="url(#paint0_linear)"/>
<path d="M35.6176 48.2472V32.3667C38.2538 30.8444 39.9844 27.9545 39.9844 24.9762C39.9844 20.9066 37.6573 17.9426 33.7593 17.0484C33.4345 16.9739 33.0944 17.0581 32.8421 17.2752C32.5904 17.4927 32.4566 17.817 32.4821 18.1489L32.8278 22.5872C31.9546 23.0453 30.9128 23.0458 30.039 22.5883L30.4108 18.1255C30.4394 17.7823 30.2974 17.4473 30.0308 17.2292C29.7643 17.0112 29.4078 16.9381 29.0774 17.0341C25.5124 18.0667 23.2914 21.1328 23.2914 25.037C23.2914 28.6204 25.1718 31.519 28.3094 32.7753V48.5945C26.0869 49.9064 23.9456 52.5686 23.9793 55.9559C23.9793 59.9923 26.2804 62.9762 30.1279 63.9388C30.4547 64.0205 30.8004 63.9403 31.0578 63.7233C31.3152 63.5063 31.4526 63.1789 31.427 62.8434L31.0828 58.4056C31.9556 57.9475 32.9979 57.947 33.8716 58.4041L33.4999 62.8674C33.4713 63.2106 33.6132 63.5456 33.8798 63.7636C34.1464 63.9817 34.5028 64.0547 34.8332 63.9587C38.3809 62.9307 40.6064 59.88 40.6422 55.9855C40.6427 52.4016 38.7379 49.5035 35.6176 48.2472ZM35.7295 61.3012L36.0078 57.9567C36.0374 57.6008 35.8837 57.2546 35.5998 57.038L35.5605 57.0079C33.719 55.6102 31.1676 55.627 29.345 57.0488C29.0713 57.2648 28.9232 57.6034 28.9503 57.9511L29.2173 61.3916C27.2037 60.3881 26.0777 58.471 26.0777 55.9457C26.0506 53.1942 27.9881 51.0253 29.8056 50.1735C30.1718 50.0009 30.4041 49.6312 30.4016 49.2262V32.0343C30.4041 31.5741 30.1044 31.1671 29.6642 31.0328C27.0235 30.2357 25.3867 27.9381 25.3867 25.0359C25.3867 22.6986 26.4265 20.7662 28.1796 19.6907L27.9023 23.0351C27.8727 23.3916 28.0269 23.7383 28.3119 23.9543L28.3507 23.9839C30.1897 25.3812 32.7385 25.3663 34.5605 23.9482C34.5697 23.941 34.58 23.9329 34.5886 23.9257C34.8491 23.7087 34.988 23.3788 34.9619 23.0407L34.6913 19.5635C36.7452 20.5262 37.8937 22.4346 37.8937 24.9767C37.8937 27.3462 36.3438 29.7372 34.1244 30.7913C33.7598 30.9644 33.5274 31.3321 33.5274 31.736V48.9877C33.5274 49.4489 33.8298 49.8554 34.271 49.9886C36.9122 50.7863 38.552 53.0839 38.552 55.9763C38.5295 58.3035 37.4811 60.2293 35.73 61.3012H35.7295Z" fill="url(#paint1_linear)"/>
</g>
<defs>
<linearGradient id="paint0_linear" x1="2.29395" y1="26.1101" x2="61.6469" y2="26.1101" gradientUnits="userSpaceOnUse">
<stop stop-color="#EA0000"/>
<stop offset="1" stop-color="#F5492F"/>
</linearGradient>
<linearGradient id="paint1_linear" x1="23.2914" y1="40.4963" x2="40.6422" y2="40.4963" gradientUnits="userSpaceOnUse">
<stop stop-color="#EA0000"/>
<stop offset="1" stop-color="#F5492F"/>
</linearGradient>
<clipPath id="clip0">
<rect width="64" height="64" fill="white"/>
</clipPath>
</defs>
</svg>
