<svg width="48" height="48" viewBox="0 0 48 48" fill="none" xmlns="http://www.w3.org/2000/svg">
<g clip-path="url(#clip0)">
<path d="M20.129 17.0323C20.5566 17.0323 20.9032 16.6857 20.9032 16.2581C20.9032 15.8305 20.5566 15.4839 20.129 15.4839C19.7015 15.4839 19.3548 15.8305 19.3548 16.2581C19.3548 16.6857 19.7015 17.0323 20.129 17.0323Z" fill="url(#paint0_linear)"/>
<path d="M12.3871 17.0323C12.8147 17.0323 13.1613 16.6857 13.1613 16.2581C13.1613 15.8305 12.8147 15.4839 12.3871 15.4839C11.9595 15.4839 11.6129 15.8305 11.6129 16.2581C11.6129 16.6857 11.9595 17.0323 12.3871 17.0323Z" fill="url(#paint1_linear)"/>
<path d="M19.3548 20.9033H17.8064C17.8064 21.7573 17.112 22.4517 16.2581 22.4517C15.4041 22.4517 14.7097 21.7573 14.7097 20.9033H13.1613C13.1613 22.6112 14.5502 24.0001 16.2581 24.0001C17.9659 24.0001 19.3548 22.6112 19.3548 20.9033Z" fill="url(#paint2_linear)"/>
<path d="M29.4194 24.7742V30.9724C29.2219 30.8787 29.0206 30.7935 28.8108 30.7239L20.9032 28.087V26.4828C22.6142 25.3641 23.8947 23.647 24.456 21.631C26.3737 21.4026 27.871 19.7845 27.871 17.8065V10.8766C27.871 4.87974 22.9912 0 16.9943 0C14.8405 0 12.7533 0.630968 10.961 1.82632L8.98297 3.14477C6.46064 3.72464 4.64516 5.98994 4.64516 8.59277V17.8065C4.64516 19.7845 6.14245 21.4026 8.06013 21.631C8.62065 23.6477 9.90194 25.3641 11.6129 26.4828V28.087L3.70529 30.7239C1.48955 31.4617 0 33.528 0 35.8637V44.9032H29.4194V48H48V24.7742H29.4194ZM22.169 30.1417L20.527 35.0663L17.4046 32.4643L20.3381 29.5308L22.169 30.1417ZM15.3306 37.9355H17.1848L18.3894 43.3548H14.1267L15.3306 37.9355ZM17.2483 36.3871H15.2671L14.7352 34.7923L16.2581 33.5241L17.7801 34.7923L17.2483 36.3871ZM24.7417 19.9966C24.7579 19.7837 24.7742 19.5716 24.7742 19.3548V15.6263C25.673 15.9468 26.3226 16.7985 26.3226 17.8065C26.3226 18.8261 25.6575 19.6854 24.7417 19.9966ZM6.19355 17.8065C6.19355 16.7985 6.8431 15.9468 7.74194 15.6263V19.3548C7.74194 19.5716 7.75819 19.7837 7.77445 19.9966C6.85858 19.6854 6.19355 18.8261 6.19355 17.8065ZM7.74194 12.3871V14.0137C7.16671 14.1314 6.64568 14.3868 6.19355 14.729V8.592C6.19355 6.67277 7.56 5.00594 9.44206 4.62968L9.59148 4.59948L11.8196 3.11458C13.3579 2.09032 15.1463 1.54839 16.9943 1.54839C22.1381 1.54839 26.3226 5.7329 26.3226 10.8766V14.7298C25.8705 14.3876 25.3494 14.1314 24.7742 14.0145V12.3871H23.7345C21.1169 12.3871 18.6557 11.3683 16.8054 9.51716L16.2581 8.96981L15.7107 9.51716C13.8596 11.3683 11.3992 12.3871 8.78168 12.3871H7.74194ZM9.29032 19.3548V13.9239C11.8808 13.8108 14.3148 12.8315 16.2581 11.1252C18.2013 12.8315 20.6354 13.8108 23.2258 13.9239V19.3548C23.2258 23.1972 20.1004 26.3226 16.2581 26.3226C12.4157 26.3226 9.29032 23.1972 9.29032 19.3548ZM16.2581 27.871C17.3512 27.871 18.3933 27.6565 19.3548 27.2795V28.3246L16.2581 31.4214L13.1613 28.3246V27.2795C14.1228 27.6565 15.1649 27.871 16.2581 27.871ZM12.1781 29.5308L15.1115 32.4643L11.9892 35.0663L10.3471 30.1417L12.1781 29.5308ZM1.54839 35.8637C1.54839 34.1954 2.61213 32.719 4.19535 32.1917L8.87845 30.631L11.2374 37.7079L13.4594 35.8568L13.9076 37.2023L12.5404 43.3548H7.74194V37.9355H6.19355V43.3548H1.54839V35.8637ZM26.3226 43.3548V37.9355H24.7742V43.3548H19.9757L18.6085 37.2023L19.0568 35.8568L21.2787 37.7079L23.6377 30.631L28.3215 32.1925C28.7241 32.3265 29.0849 32.5386 29.4194 32.7917V43.3548H26.3226ZM46.4516 46.4516H30.9677V26.3226H46.4516V46.4516Z" fill="url(#paint3_linear)"/>
<path d="M44.9032 27.8708H32.5161V29.4192H44.9032V27.8708Z" fill="url(#paint4_linear)"/>
<path d="M44.9032 30.9678H32.5161V32.5162H44.9032V30.9678Z" fill="url(#paint5_linear)"/>
<path d="M37.1613 34.0645H32.5161V38.7096H37.1613V34.0645ZM35.6129 37.1612H34.0645V35.6128H35.6129V37.1612Z" fill="url(#paint6_linear)"/>
<path d="M44.9032 34.0645H38.7097V35.6128H44.9032V34.0645Z" fill="url(#paint7_linear)"/>
<path d="M44.9032 37.1614H38.7097V38.7098H44.9032V37.1614Z" fill="url(#paint8_linear)"/>
<path d="M37.1613 40.2581H32.5161V44.9032H37.1613V40.2581ZM35.6129 43.3548H34.0645V41.8064H35.6129V43.3548Z" fill="url(#paint9_linear)"/>
<path d="M44.9032 40.2581H38.7097V41.8064H44.9032V40.2581Z" fill="url(#paint10_linear)"/>
<path d="M44.9032 43.3547H38.7097V44.9031H44.9032V43.3547Z" fill="url(#paint11_linear)"/>
</g>
<defs>
<linearGradient id="paint0_linear" x1="19.3548" y1="16.2581" x2="20.9032" y2="16.2581" gradientUnits="userSpaceOnUse">
<stop stop-color="#EA0000"/>
<stop offset="1" stop-color="#F5492F"/>
</linearGradient>
<linearGradient id="paint1_linear" x1="11.6129" y1="16.2581" x2="13.1613" y2="16.2581" gradientUnits="userSpaceOnUse">
<stop stop-color="#EA0000"/>
<stop offset="1" stop-color="#F5492F"/>
</linearGradient>
<linearGradient id="paint2_linear" x1="13.1613" y1="22.4517" x2="19.3548" y2="22.4517" gradientUnits="userSpaceOnUse">
<stop stop-color="#EA0000"/>
<stop offset="1" stop-color="#F5492F"/>
</linearGradient>
<linearGradient id="paint3_linear" x1="-6.28646e-08" y1="23.9999" x2="48" y2="23.9999" gradientUnits="userSpaceOnUse">
<stop stop-color="#EA0000"/>
<stop offset="1" stop-color="#F5492F"/>
</linearGradient>
<linearGradient id="paint4_linear" x1="32.5161" y1="28.645" x2="44.9032" y2="28.645" gradientUnits="userSpaceOnUse">
<stop stop-color="#EA0000"/>
<stop offset="1" stop-color="#F5492F"/>
</linearGradient>
<linearGradient id="paint5_linear" x1="32.5161" y1="31.742" x2="44.9032" y2="31.742" gradientUnits="userSpaceOnUse">
<stop stop-color="#EA0000"/>
<stop offset="1" stop-color="#F5492F"/>
</linearGradient>
<linearGradient id="paint6_linear" x1="32.5161" y1="36.387" x2="37.1613" y2="36.387" gradientUnits="userSpaceOnUse">
<stop stop-color="#EA0000"/>
<stop offset="1" stop-color="#F5492F"/>
</linearGradient>
<linearGradient id="paint7_linear" x1="38.7097" y1="34.8386" x2="44.9032" y2="34.8386" gradientUnits="userSpaceOnUse">
<stop stop-color="#EA0000"/>
<stop offset="1" stop-color="#F5492F"/>
</linearGradient>
<linearGradient id="paint8_linear" x1="38.7097" y1="37.9356" x2="44.9032" y2="37.9356" gradientUnits="userSpaceOnUse">
<stop stop-color="#EA0000"/>
<stop offset="1" stop-color="#F5492F"/>
</linearGradient>
<linearGradient id="paint9_linear" x1="32.5161" y1="42.5806" x2="37.1613" y2="42.5806" gradientUnits="userSpaceOnUse">
<stop stop-color="#EA0000"/>
<stop offset="1" stop-color="#F5492F"/>
</linearGradient>
<linearGradient id="paint10_linear" x1="38.7097" y1="41.0322" x2="44.9032" y2="41.0322" gradientUnits="userSpaceOnUse">
<stop stop-color="#EA0000"/>
<stop offset="1" stop-color="#F5492F"/>
</linearGradient>
<linearGradient id="paint11_linear" x1="38.7097" y1="44.1289" x2="44.9032" y2="44.1289" gradientUnits="userSpaceOnUse">
<stop stop-color="#EA0000"/>
<stop offset="1" stop-color="#F5492F"/>
</linearGradient>
<clipPath id="clip0">
<rect width="48" height="48" fill="white"/>
</clipPath>
</defs>
</svg>
