<svg width="48" height="48" viewBox="0 0 48 48" fill="none" xmlns="http://www.w3.org/2000/svg">
<g clip-path="url(#clip0)">
<path d="M42.839 25.2529C42.424 25.2529 42.0874 25.5894 42.0874 26.0045V46.4971H5.91212V40.4345C5.91212 40.0195 5.57565 39.6829 5.16053 39.6829C4.7455 39.6829 4.40894 40.0194 4.40894 40.4345V47.2487C4.40894 47.6638 4.7454 48.0003 5.16053 48.0003H42.8389C43.254 48.0003 43.5905 47.6639 43.5905 47.2487V26.0045C43.5906 25.5894 43.2541 25.2529 42.839 25.2529Z" fill="#F5492F"/>
<path d="M42.839 25.2529C42.424 25.2529 42.0874 25.5894 42.0874 26.0045V46.4971H5.91212V40.4345C5.91212 40.0195 5.57565 39.6829 5.16053 39.6829C4.7455 39.6829 4.40894 40.0194 4.40894 40.4345V47.2487C4.40894 47.6638 4.7454 48.0003 5.16053 48.0003H42.8389C43.254 48.0003 43.5905 47.6639 43.5905 47.2487V26.0045C43.5906 25.5894 43.2541 25.2529 42.839 25.2529Z" fill="url(#paint0_linear)"/>
<path d="M47.7023 17.7895L24.454 0.152812C24.1854 -0.0509063 23.814 -0.0509063 23.5456 0.152812L14.3296 7.14422V4.70981H15.1814C15.5965 4.70981 15.933 4.37334 15.933 3.95822V0.751594C15.933 0.336563 15.5966 0 15.1814 0H3.95797C3.54294 0 3.20638 0.336469 3.20638 0.751594V3.95831C3.20638 4.37334 3.54285 4.70991 3.95797 4.70991H4.80978V14.3662L0.297129 17.7895C0.0399724 17.9845 -0.0639026 18.322 0.0390349 18.6278C0.141972 18.9338 0.42866 19.1398 0.751347 19.1398H4.409V36.4258C4.409 36.8408 4.74547 37.1774 5.1606 37.1774C5.57563 37.1774 5.91219 36.8409 5.91219 36.4258V18.3883C5.91219 17.9733 5.57572 17.6367 5.1606 17.6367H2.9856L23.9997 1.69491L45.0139 17.6367H42.8389C42.4239 17.6367 42.0873 17.9732 42.0873 18.3883V21.9958C42.0873 22.4108 42.4238 22.7474 42.8389 22.7474C43.2539 22.7474 43.5905 22.4109 43.5905 21.9958V19.1399H47.2482C47.5709 19.1399 47.8576 18.9338 47.9605 18.6279C48.0634 18.322 47.9594 17.9845 47.7023 17.7895ZM4.70957 3.20672V1.50319H14.4298V3.20672H4.70957ZM12.8264 8.2845L6.31288 13.2258V4.70981H12.8264V8.2845Z" fill="#F5492F"/>
<path d="M47.7023 17.7895L24.454 0.152812C24.1854 -0.0509063 23.814 -0.0509063 23.5456 0.152812L14.3296 7.14422V4.70981H15.1814C15.5965 4.70981 15.933 4.37334 15.933 3.95822V0.751594C15.933 0.336563 15.5966 0 15.1814 0H3.95797C3.54294 0 3.20638 0.336469 3.20638 0.751594V3.95831C3.20638 4.37334 3.54285 4.70991 3.95797 4.70991H4.80978V14.3662L0.297129 17.7895C0.0399724 17.9845 -0.0639026 18.322 0.0390349 18.6278C0.141972 18.9338 0.42866 19.1398 0.751347 19.1398H4.409V36.4258C4.409 36.8408 4.74547 37.1774 5.1606 37.1774C5.57563 37.1774 5.91219 36.8409 5.91219 36.4258V18.3883C5.91219 17.9733 5.57572 17.6367 5.1606 17.6367H2.9856L23.9997 1.69491L45.0139 17.6367H42.8389C42.4239 17.6367 42.0873 17.9732 42.0873 18.3883V21.9958C42.0873 22.4108 42.4238 22.7474 42.8389 22.7474C43.2539 22.7474 43.5905 22.4109 43.5905 21.9958V19.1399H47.2482C47.5709 19.1399 47.8576 18.9338 47.9605 18.6279C48.0634 18.322 47.9594 17.9845 47.7023 17.7895ZM4.70957 3.20672V1.50319H14.4298V3.20672H4.70957ZM12.8264 8.2845L6.31288 13.2258V4.70981H12.8264V8.2845Z" fill="url(#paint1_linear)"/>
<path d="M40.2747 41.3453L34.663 35.7336C33.9939 35.0644 32.9525 34.8857 32.0981 35.2944L28.3836 31.58C30.0286 29.5291 31.0143 26.9279 31.0143 24.1004C31.0143 21.3973 30.1353 18.846 28.4722 16.7225C28.2163 16.3957 27.7438 16.3383 27.4171 16.5943C27.0903 16.8502 27.033 17.3226 27.2889 17.6493C28.7428 19.5057 29.5113 21.7365 29.5113 24.1004C29.5113 29.8746 24.8138 34.5721 19.0395 34.5721C13.2653 34.5721 8.56767 29.8746 8.56767 24.1005C8.56767 18.3263 13.2654 13.6287 19.0395 13.6287C20.9377 13.6287 22.7967 14.1417 24.4155 15.112C24.7715 15.3255 25.233 15.2097 25.4465 14.8537C25.66 14.4977 25.5443 14.0361 25.1882 13.8227C23.3361 12.7125 21.2099 12.1255 19.0395 12.1255C12.4365 12.1255 7.06448 17.4974 7.06448 24.1005C7.06448 30.7036 12.4365 36.0753 19.0395 36.0753C22.2747 36.0753 25.2138 34.7851 27.3709 32.693L31.036 36.3581C30.6374 37.1958 30.7818 38.2297 31.4744 38.9222L37.086 44.5339C37.9551 45.4032 39.4056 45.4032 40.2747 44.5339C41.1538 43.6548 41.1538 42.2243 40.2747 41.3453ZM39.2517 43.4281C38.9707 43.7565 38.4546 43.7767 38.149 43.4711L32.5373 37.8594C32.2639 37.586 32.246 37.1335 32.4975 36.8396C32.7785 36.5112 33.2945 36.4909 33.6002 36.7966L39.2119 42.4082C39.4852 42.6816 39.5032 43.1341 39.2517 43.4281Z" fill="#F5492F"/>
<path d="M40.2747 41.3453L34.663 35.7336C33.9939 35.0644 32.9525 34.8857 32.0981 35.2944L28.3836 31.58C30.0286 29.5291 31.0143 26.9279 31.0143 24.1004C31.0143 21.3973 30.1353 18.846 28.4722 16.7225C28.2163 16.3957 27.7438 16.3383 27.4171 16.5943C27.0903 16.8502 27.033 17.3226 27.2889 17.6493C28.7428 19.5057 29.5113 21.7365 29.5113 24.1004C29.5113 29.8746 24.8138 34.5721 19.0395 34.5721C13.2653 34.5721 8.56767 29.8746 8.56767 24.1005C8.56767 18.3263 13.2654 13.6287 19.0395 13.6287C20.9377 13.6287 22.7967 14.1417 24.4155 15.112C24.7715 15.3255 25.233 15.2097 25.4465 14.8537C25.66 14.4977 25.5443 14.0361 25.1882 13.8227C23.3361 12.7125 21.2099 12.1255 19.0395 12.1255C12.4365 12.1255 7.06448 17.4974 7.06448 24.1005C7.06448 30.7036 12.4365 36.0753 19.0395 36.0753C22.2747 36.0753 25.2138 34.7851 27.3709 32.693L31.036 36.3581C30.6374 37.1958 30.7818 38.2297 31.4744 38.9222L37.086 44.5339C37.9551 45.4032 39.4056 45.4032 40.2747 44.5339C41.1538 43.6548 41.1538 42.2243 40.2747 41.3453ZM39.2517 43.4281C38.9707 43.7565 38.4546 43.7767 38.149 43.4711L32.5373 37.8594C32.2639 37.586 32.246 37.1335 32.4975 36.8396C32.7785 36.5112 33.2945 36.4909 33.6002 36.7966L39.2119 42.4082C39.4852 42.6816 39.5032 43.1341 39.2517 43.4281Z" fill="url(#paint2_linear)"/>
<path d="M19.0395 15.332C14.2046 15.332 10.2712 19.2654 10.2712 24.1003C10.2712 28.9352 14.2047 32.8685 19.0395 32.8685C23.8742 32.8685 27.8077 28.9352 27.8077 24.1003C27.8077 19.2654 23.8743 15.332 19.0395 15.332ZM19.0395 31.3654C15.0334 31.3654 11.7743 28.1062 11.7743 24.1002C11.7743 20.0942 15.0335 16.835 19.0395 16.835C23.0454 16.835 26.3046 20.0942 26.3046 24.1002C26.3046 28.1062 23.0455 31.3654 19.0395 31.3654Z" fill="#F5492F"/>
<path d="M19.0395 15.332C14.2046 15.332 10.2712 19.2654 10.2712 24.1003C10.2712 28.9352 14.2047 32.8685 19.0395 32.8685C23.8742 32.8685 27.8077 28.9352 27.8077 24.1003C27.8077 19.2654 23.8743 15.332 19.0395 15.332ZM19.0395 31.3654C15.0334 31.3654 11.7743 28.1062 11.7743 24.1002C11.7743 20.0942 15.0335 16.835 19.0395 16.835C23.0454 16.835 26.3046 20.0942 26.3046 24.1002C26.3046 28.1062 23.0455 31.3654 19.0395 31.3654Z" fill="url(#paint3_linear)"/>
<path d="M25.33 23.7777C24.3453 21.7051 21.6409 20.1421 19.0395 20.1421C16.438 20.1421 13.7338 21.7052 12.7489 23.7778C12.652 23.9819 12.652 24.2188 12.7489 24.423C13.7338 26.4956 16.438 28.0585 19.0395 28.0585C21.6409 28.0585 24.3453 26.4954 25.33 24.4229C25.4268 24.2187 25.4268 23.9818 25.33 23.7777ZM16.4881 25.9556C15.5531 25.5127 14.7515 24.8571 14.283 24.1002C14.7516 23.3434 15.5532 22.6879 16.4881 22.2448C16.108 22.766 15.883 23.4071 15.883 24.1002C15.883 24.7933 16.1081 25.4345 16.4881 25.9556ZM19.0395 25.7537C18.1278 25.7537 17.386 25.0119 17.386 24.1002C17.386 23.1885 18.1278 22.4467 19.0395 22.4467C19.9512 22.4467 20.6929 23.1885 20.6929 24.1002C20.6929 25.0119 19.9512 25.7537 19.0395 25.7537ZM21.591 25.9556C21.971 25.4345 22.196 24.7933 22.196 24.1002C22.196 23.4071 21.9709 22.7661 21.591 22.2448C22.5259 22.6879 23.3274 23.3433 23.7961 24.1002C23.3274 24.8571 22.5258 25.5126 21.591 25.9556Z" fill="#F5492F"/>
<path d="M25.33 23.7777C24.3453 21.7051 21.6409 20.1421 19.0395 20.1421C16.438 20.1421 13.7338 21.7052 12.7489 23.7778C12.652 23.9819 12.652 24.2188 12.7489 24.423C13.7338 26.4956 16.438 28.0585 19.0395 28.0585C21.6409 28.0585 24.3453 26.4954 25.33 24.4229C25.4268 24.2187 25.4268 23.9818 25.33 23.7777ZM16.4881 25.9556C15.5531 25.5127 14.7515 24.8571 14.283 24.1002C14.7516 23.3434 15.5532 22.6879 16.4881 22.2448C16.108 22.766 15.883 23.4071 15.883 24.1002C15.883 24.7933 16.1081 25.4345 16.4881 25.9556ZM19.0395 25.7537C18.1278 25.7537 17.386 25.0119 17.386 24.1002C17.386 23.1885 18.1278 22.4467 19.0395 22.4467C19.9512 22.4467 20.6929 23.1885 20.6929 24.1002C20.6929 25.0119 19.9512 25.7537 19.0395 25.7537ZM21.591 25.9556C21.971 25.4345 22.196 24.7933 22.196 24.1002C22.196 23.4071 21.9709 22.7661 21.591 22.2448C22.5259 22.6879 23.3274 23.3433 23.7961 24.1002C23.3274 24.8571 22.5258 25.5126 21.591 25.9556Z" fill="url(#paint4_linear)"/>
</g>
</svg>
