<svg width="48" height="48" viewBox="0 0 48 48" fill="none" xmlns="http://www.w3.org/2000/svg">
<path d="M24 3.75098C23.4808 3.75098 23.0634 4.1691 23.0634 4.68754C23.0634 5.17007 23.4264 5.5716 23.9062 5.61922C24.4617 5.67435 24.9366 5.24169 24.9366 4.68754C24.9366 4.16835 24.5184 3.75098 24 3.75098Z" fill="url(#paint0_linear)"/>
<path d="M42.75 5.625C40.1653 5.625 38.0625 3.52219 38.0625 0.9375C38.0625 0.419813 37.6427 0 37.125 0H10.875C10.3573 0 9.9375 0.419813 9.9375 0.9375C9.9375 3.52219 7.83469 5.625 5.25 5.625C4.73231 5.625 4.3125 6.04481 4.3125 6.5625V21.8616C4.3125 33.7844 12.0839 44.468 23.7308 47.9605C23.8186 47.9868 23.9093 48 24 48C24.0907 48 24.1816 47.9868 24.2693 47.9604C35.6639 44.5424 43.6875 34.0452 43.6875 21.8616V6.5625C43.6875 6.04481 43.2677 5.625 42.75 5.625ZM41.8125 21.8616C41.8125 33.0598 34.6668 42.7577 24 46.0822C13.4183 42.7842 6.1875 32.9985 6.1875 21.8616V7.43325C9.05728 7.02094 11.3334 4.74478 11.7458 1.875H36.2542C36.6666 4.74478 38.9427 7.02094 41.8125 7.43325V21.8616Z" fill="url(#paint1_linear)"/>
<path d="M39.3761 8.67094C37.4211 7.81472 35.8728 6.26644 35.0166 4.31137C34.8671 3.97031 34.5302 3.75 34.1578 3.75H27.7481C27.2304 3.75 26.8106 4.16981 26.8106 4.6875C26.8106 5.20519 27.2304 5.625 27.7481 5.625H33.565C34.5555 7.56384 36.1237 9.13191 38.0625 10.1225V21.8616C38.0625 31.0362 32.5548 38.9525 24 42.1213C15.4452 38.9524 9.9375 31.0362 9.9375 21.8616V10.1225C11.8763 9.13191 13.4444 7.56384 14.435 5.625H20.2519C20.7696 5.625 21.1894 5.20519 21.1894 4.6875C21.1894 4.16981 20.7696 3.75 20.2519 3.75H13.8422C13.4698 3.75 13.1329 3.97041 12.9834 4.31137C12.1272 6.26644 10.5789 7.81472 8.62387 8.67094C8.28291 8.82037 8.0625 9.15741 8.0625 9.52969V21.8616C8.0625 31.9128 14.2792 40.6728 23.6873 44.0021C23.7884 44.0379 23.8942 44.0558 24 44.0558C24.1058 44.0558 24.2116 44.0379 24.3127 44.0021C33.713 40.6756 39.9375 31.9209 39.9375 21.8616V9.52969C39.9375 9.15731 39.7171 8.82037 39.3761 8.67094Z" fill="url(#paint2_linear)"/>
<path d="M24 13.6875C19.3476 13.6875 15.5625 17.4726 15.5625 22.125C15.5625 26.7774 19.3476 30.5625 24 30.5625C28.6524 30.5625 32.4375 26.7774 32.4375 22.125C32.4375 17.4726 28.6524 13.6875 24 13.6875ZM24 28.6875C20.3814 28.6875 17.4375 25.7436 17.4375 22.125C17.4375 18.5064 20.3814 15.5625 24 15.5625C27.6186 15.5625 30.5625 18.5064 30.5625 22.125C30.5625 25.7436 27.6186 28.6875 24 28.6875Z" fill="url(#paint3_linear)"/>
<path d="M28.4129 19.587C28.0467 19.221 27.4533 19.221 27.087 19.587L23.0625 23.6116L21.8504 22.3996C21.4842 22.0336 20.8908 22.0336 20.5245 22.3996C20.1584 22.7657 20.1584 23.3593 20.5245 23.7255L22.3995 25.6005C22.5827 25.7834 22.8225 25.875 23.0625 25.875C23.3025 25.875 23.5423 25.7834 23.7254 25.6004L28.4129 20.9129C28.779 20.5468 28.779 19.9532 28.4129 19.587Z" fill="url(#paint4_linear)"/>
<defs>
<linearGradient id="paint0_linear" x1="23.0634" y1="4.68747" x2="24.9366" y2="4.68747" gradientUnits="userSpaceOnUse">
<stop stop-color="#EA0000"/>
<stop offset="1" stop-color="#F5492F"/>
</linearGradient>
<linearGradient id="paint1_linear" x1="4.3125" y1="23.9999" x2="43.6875" y2="23.9999" gradientUnits="userSpaceOnUse">
<stop stop-color="#EA0000"/>
<stop offset="1" stop-color="#F5492F"/>
</linearGradient>
<linearGradient id="paint2_linear" x1="8.0625" y1="23.9028" x2="39.9375" y2="23.9028" gradientUnits="userSpaceOnUse">
<stop stop-color="#EA0000"/>
<stop offset="1" stop-color="#F5492F"/>
</linearGradient>
<linearGradient id="paint3_linear" x1="15.5625" y1="22.125" x2="32.4375" y2="22.125" gradientUnits="userSpaceOnUse">
<stop stop-color="#EA0000"/>
<stop offset="1" stop-color="#F5492F"/>
</linearGradient>
<linearGradient id="paint4_linear" x1="20.2499" y1="22.5937" x2="28.6875" y2="22.5937" gradientUnits="userSpaceOnUse">
<stop stop-color="#EA0000"/>
<stop offset="1" stop-color="#F5492F"/>
</linearGradient>
</defs>
</svg>
