<svg width="48" height="48" viewBox="0 0 48 48" fill="none" xmlns="http://www.w3.org/2000/svg">
<g clip-path="url(#clip0)">
<path d="M45.5308 18.4355L41.4016 18.0376C40.9634 16.2796 40.256 14.5997 39.305 13.0573L41.937 9.87989C42.1955 9.56812 42.1741 9.1112 41.888 8.82509L37.4217 4.35845C37.1356 4.07235 36.6787 4.05128 36.3669 4.30943L33.1872 6.94222C31.6422 5.99811 29.9642 5.29108 28.2093 4.84487L27.8109 0.709924C27.7722 0.307766 27.4341 0.000976562 27.03 0.000976562H20.926C20.5219 0.000976562 20.1841 0.307766 20.1454 0.709924L19.7467 4.84487C17.9918 5.29069 16.3138 5.99811 14.7688 6.94222L11.589 4.30866C11.2776 4.05052 10.8207 4.07158 10.5342 4.35769L6.06798 8.82471C5.78187 9.1112 5.76042 9.56812 6.01895 9.87989L8.65021 13.0569C7.69844 14.5993 6.99064 16.2796 6.5521 18.038L2.42519 18.4363C2.0238 18.4753 1.71854 18.8135 1.72046 19.2169V25.5487C1.71816 25.9517 2.02342 26.2902 2.42481 26.3293L6.55669 26.7276C7.00213 28.4822 7.70878 30.1605 8.65251 31.7056L6.01857 34.8849C5.74855 35.2109 5.7857 35.6923 6.10283 35.973L9.49053 38.9693C9.65791 39.1175 9.88082 39.1873 10.1033 39.1608C10.3255 39.134 10.5258 39.0137 10.6537 38.8303L15.5225 31.8442C15.7397 31.5325 15.7021 31.1096 15.4333 30.8407C10.7621 26.1696 10.7617 18.5956 15.4333 13.9241C20.1048 9.25253 27.6788 9.25253 32.3503 13.9241C37.0219 18.5956 37.0219 26.1696 32.3503 30.8407C32.078 31.1131 32.0436 31.5424 32.2688 31.8546L37.3088 38.8402C37.4382 39.0199 37.6378 39.1363 37.858 39.1608C38.0782 39.1853 38.2984 39.1156 38.4643 38.9689L41.8531 35.9738C42.1703 35.6935 42.2078 35.2116 41.9374 34.8853L39.3042 31.7056C40.2483 30.1605 40.9554 28.4826 41.4012 26.7276L45.5308 26.3293C45.9322 26.2902 46.2374 25.9517 46.2351 25.5487V19.2161C46.237 18.8132 45.9322 18.4746 45.5308 18.4355ZM44.6663 24.836L40.688 25.2197C40.3502 25.2523 40.0722 25.4993 39.9998 25.831C39.5674 27.7924 38.781 29.6584 37.6799 31.3383C37.4915 31.6263 37.5129 32.0036 37.7324 32.2682L40.2449 35.3013L38.0744 37.2201L33.9218 31.4643C38.7301 26.16 38.5761 17.9311 33.4595 12.8145C28.184 7.53895 19.5996 7.53895 14.3241 12.8145C9.20481 17.9338 9.05352 26.1688 13.8691 31.4723L9.87009 37.2105L7.7107 35.3009L10.2228 32.2678C10.4423 32.0024 10.4634 31.6255 10.2749 31.3375C9.1734 29.658 8.3867 27.792 7.95314 25.831C7.8819 25.4997 7.6046 25.2527 7.26756 25.2197L3.28926 24.836V19.9292L7.26756 19.5451C7.6069 19.5121 7.88573 19.2636 7.95659 18.93C8.37866 16.9682 9.16498 15.1033 10.2742 13.4311C10.4649 13.1427 10.4442 12.7636 10.2236 12.4974L7.68235 9.42909L11.1386 5.97245L14.2069 8.51332C14.4719 8.73317 14.8492 8.75423 15.1368 8.56541C16.8163 7.46388 18.6823 6.67718 20.6433 6.244C20.9754 6.17046 21.2221 5.89163 21.2546 5.55344L21.6384 1.57016H26.3176L26.7017 5.55344C26.7343 5.89163 26.981 6.17046 27.3126 6.244C29.274 6.67718 31.14 7.46426 32.8195 8.56579C33.1072 8.75462 33.4844 8.73355 33.7495 8.5137L36.8174 5.97283L40.2736 9.42909L37.7327 12.4974C37.5125 12.7636 37.4922 13.1427 37.683 13.4308C38.7925 15.103 39.5788 16.9682 40.0013 18.93C40.071 19.2632 40.3491 19.5121 40.6876 19.5451L44.6663 19.9289V24.836Z" fill="url(#paint0_linear)"/>
<path d="M26.7132 36.1864V24.276C28.6903 23.1343 29.9883 20.9668 29.9883 18.7331C29.9883 15.6809 28.243 13.458 25.3195 12.7873C25.0759 12.7314 24.8208 12.7946 24.6316 12.9574C24.4428 13.1205 24.3424 13.3637 24.3616 13.6127L24.6209 16.9414C23.9659 17.285 23.1846 17.2853 22.5293 16.9422L22.8081 13.5951C22.8295 13.3377 22.7231 13.0864 22.5231 12.9229C22.3232 12.7593 22.0559 12.7046 21.8081 12.7766C19.1343 13.551 17.4686 15.8506 17.4686 18.7787C17.4686 21.4663 18.8788 23.6402 21.232 24.5824V36.4468C19.5652 37.4308 17.9592 39.4274 17.9845 41.9679C17.9845 44.9952 19.7103 47.2331 22.5959 47.9551C22.841 48.0164 23.1003 47.9562 23.2934 47.7935C23.4864 47.6307 23.5894 47.3852 23.5703 47.1335L23.3121 43.8052C23.9667 43.4616 24.7484 43.4613 25.4037 43.804L25.1249 47.1515C25.1035 47.4089 25.2099 47.6602 25.4099 47.8237C25.6098 47.9873 25.8771 48.042 26.1249 47.97C28.7857 47.199 30.4548 44.9109 30.4816 41.9901C30.482 39.3022 29.0534 37.1286 26.7132 36.1864ZM26.7971 45.9768L27.0059 43.4685C27.0281 43.2016 26.9128 42.9419 26.6998 42.7795L26.6703 42.7569C25.2892 41.7086 23.3757 41.7213 22.0088 42.7875C21.8035 42.9496 21.6924 43.2035 21.7127 43.4643L21.913 46.0446C20.4028 45.292 19.5583 43.8542 19.5583 41.9602C19.538 39.8966 20.9911 38.27 22.3542 37.6311C22.6288 37.5017 22.8031 37.2244 22.8012 36.9206V24.0267C22.8031 23.6816 22.5783 23.3763 22.2481 23.2756C20.2676 22.6777 19.0401 20.9546 19.0401 18.7779C19.0401 17.0249 19.8199 15.5756 21.1347 14.769L20.9268 17.2773C20.9045 17.5446 21.0202 17.8047 21.2339 17.9667L21.263 17.9889C22.6422 19.0368 24.5538 19.0257 25.9204 17.9621C25.9273 17.9568 25.935 17.9506 25.9415 17.9453C26.1368 17.7825 26.241 17.5351 26.2215 17.2815L26.0185 14.6736C27.5589 15.3956 28.4203 16.8269 28.4203 18.7335C28.4203 20.5107 27.2579 22.3039 25.5933 23.0944C25.3199 23.2243 25.1456 23.5 25.1456 23.803V36.7418C25.1456 37.0876 25.3723 37.3925 25.7032 37.4925C27.6842 38.0907 28.914 39.8139 28.914 41.9832C28.8971 43.7286 28.1108 45.1729 26.7975 45.9768H26.7971Z" fill="url(#paint1_linear)"/>
</g>
<defs>
<linearGradient id="paint0_linear" x1="1.72044" y1="19.5835" x2="46.2351" y2="19.5835" gradientUnits="userSpaceOnUse">
<stop stop-color="#EA0000"/>
<stop offset="1" stop-color="#F5492F"/>
</linearGradient>
<linearGradient id="paint1_linear" x1="17.4686" y1="30.3732" x2="30.4816" y2="30.3732" gradientUnits="userSpaceOnUse">
<stop stop-color="#EA0000"/>
<stop offset="1" stop-color="#F5492F"/>
</linearGradient>
<clipPath id="clip0">
<rect y="0.000976562" width="48" height="48" fill="white"/>
</clipPath>
</defs>
</svg>
