<svg width="48" height="48" viewBox="0 0 48 48" fill="none" xmlns="http://www.w3.org/2000/svg">
<rect width="48" height="48" fill="#E5E5E5"/>
<rect x="-135" y="-2106" width="1440" height="6848" fill="white"/>
<path d="M47.2 7.5999H38.4V1.1999C38.4 0.758102 38.0418 0.399902 37.6 0.399902H10.4C9.9582 0.399902 9.6 0.758102 9.6 1.1999V12.3999H0.8C0.3582 12.3999 0 12.7581 0 13.1999V45.9999C0 46.4417 0.3582 46.7999 0.8 46.7999C1.2418 46.7999 1.6 46.4417 1.6 45.9999V13.9999H9.6V46.7999C9.6 47.2417 9.9582 47.5999 10.4 47.5999H37.6C38.0418 47.5999 38.4 47.2417 38.4 46.7999V9.1999H46.4V45.9999C46.4 46.4417 46.7582 46.7999 47.2 46.7999C47.6418 46.7999 48 46.4417 48 45.9999V8.3999C48 7.9581 47.6418 7.5999 47.2 7.5999ZM23.2 45.9999H20V38.7999H23.2V45.9999ZM28 45.9999H24.8V38.7999H28V45.9999ZM36.8 45.9999H29.6V37.9999C29.6 37.5581 29.2418 37.1999 28.8 37.1999H19.2C18.7582 37.1999 18.4 37.5581 18.4 37.9999V45.9999H11.2V1.9999H36.8V45.9999Z" fill="#F5492F"/>
<path d="M18.4 3.6001H13.6C13.1582 3.6001 12.8 3.9583 12.8 4.4001V9.2001C12.8 9.6419 13.1582 10.0001 13.6 10.0001H18.4C18.8418 10.0001 19.2 9.6419 19.2 9.2001V4.4001C19.2 3.9583 18.8418 3.6001 18.4 3.6001ZM17.6 8.4001H14.4V5.2001H17.6V8.4001Z" fill="#F5492F"/>
<path d="M26.4 3.6001H21.6C21.1582 3.6001 20.8 3.9583 20.8 4.4001V9.2001C20.8 9.6419 21.1582 10.0001 21.6 10.0001H26.4C26.8418 10.0001 27.2 9.6419 27.2 9.2001V4.4001C27.2 3.9583 26.8418 3.6001 26.4 3.6001ZM25.6 8.4001H22.4V5.2001H25.6V8.4001Z" fill="#F5492F"/>
<path d="M34.4 3.6001H29.6C29.1582 3.6001 28.8 3.9583 28.8 4.4001V9.2001C28.8 9.6419 29.1582 10.0001 29.6 10.0001H34.4C34.8418 10.0001 35.2 9.6419 35.2 9.2001V4.4001C35.2 3.9583 34.8418 3.6001 34.4 3.6001ZM33.6 8.4001H30.4V5.2001H33.6V8.4001Z" fill="#F5492F"/>
<path d="M18.4 11.6001H13.6C13.1582 11.6001 12.8 11.9583 12.8 12.4001V17.2001C12.8 17.6419 13.1582 18.0001 13.6 18.0001H18.4C18.8418 18.0001 19.2 17.6419 19.2 17.2001V12.4001C19.2 11.9583 18.8418 11.6001 18.4 11.6001ZM17.6 16.4001H14.4V13.2001H17.6V16.4001Z" fill="#F5492F"/>
<path d="M26.4 11.6001H21.6C21.1582 11.6001 20.8 11.9583 20.8 12.4001V17.2001C20.8 17.6419 21.1582 18.0001 21.6 18.0001H26.4C26.8418 18.0001 27.2 17.6419 27.2 17.2001V12.4001C27.2 11.9583 26.8418 11.6001 26.4 11.6001ZM25.6 16.4001H22.4V13.2001H25.6V16.4001Z" fill="#F5492F"/>
<path d="M34.4 11.6001H29.6C29.1582 11.6001 28.8 11.9583 28.8 12.4001V17.2001C28.8 17.6419 29.1582 18.0001 29.6 18.0001H34.4C34.8418 18.0001 35.2 17.6419 35.2 17.2001V12.4001C35.2 11.9583 34.8418 11.6001 34.4 11.6001ZM33.6 16.4001H30.4V13.2001H33.6V16.4001Z" fill="#F5492F"/>
<path d="M18.4 19.6001H13.6C13.1582 19.6001 12.8 19.9583 12.8 20.4001V25.2001C12.8 25.6419 13.1582 26.0001 13.6 26.0001H18.4C18.8418 26.0001 19.2 25.6419 19.2 25.2001V20.4001C19.2 19.9583 18.8418 19.6001 18.4 19.6001ZM17.6 24.4001H14.4V21.2001H17.6V24.4001Z" fill="#F5492F"/>
<path d="M26.4 19.6001H21.6C21.1582 19.6001 20.8 19.9583 20.8 20.4001V25.2001C20.8 25.6419 21.1582 26.0001 21.6 26.0001H26.4C26.8418 26.0001 27.2 25.6419 27.2 25.2001V20.4001C27.2 19.9583 26.8418 19.6001 26.4 19.6001ZM25.6 24.4001H22.4V21.2001H25.6V24.4001Z" fill="#F5492F"/>
<path d="M34.4 19.6001H29.6C29.1582 19.6001 28.8 19.9583 28.8 20.4001V25.2001C28.8 25.6419 29.1582 26.0001 29.6 26.0001H34.4C34.8418 26.0001 35.2 25.6419 35.2 25.2001V20.4001C35.2 19.9583 34.8418 19.6001 34.4 19.6001ZM33.6 24.4001H30.4V21.2001H33.6V24.4001Z" fill="#F5492F"/>
<path d="M18.4 27.6001H13.6C13.1582 27.6001 12.8 27.9583 12.8 28.4001V33.2001C12.8 33.6419 13.1582 34.0001 13.6 34.0001H18.4C18.8418 34.0001 19.2 33.6419 19.2 33.2001V28.4001C19.2 27.9583 18.8418 27.6001 18.4 27.6001ZM17.6 32.4001H14.4V29.2001H17.6V32.4001Z" fill="#F5492F"/>
<path d="M26.4 27.6001H21.6C21.1582 27.6001 20.8 27.9583 20.8 28.4001V33.2001C20.8 33.6419 21.1582 34.0001 21.6 34.0001H26.4C26.8418 34.0001 27.2 33.6419 27.2 33.2001V28.4001C27.2 27.9583 26.8418 27.6001 26.4 27.6001ZM25.6 32.4001H22.4V29.2001H25.6V32.4001Z" fill="#F5492F"/>
<path d="M34.4 27.6001H29.6C29.1582 27.6001 28.8 27.9583 28.8 28.4001V33.2001C28.8 33.6419 29.1582 34.0001 29.6 34.0001H34.4C34.8418 34.0001 35.2 33.6419 35.2 33.2001V28.4001C35.2 27.9583 34.8418 27.6001 34.4 27.6001ZM33.6 32.4001H30.4V29.2001H33.6V32.4001Z" fill="#F5492F"/>
<path d="M4.80001 15.6001H4.00001C3.55821 15.6001 3.20001 15.9583 3.20001 16.4001V17.2001C3.20001 17.6419 3.55821 18.0001 4.00001 18.0001H4.80001C5.24181 18.0001 5.60001 17.6419 5.60001 17.2001V16.4001C5.60001 15.9583 5.24181 15.6001 4.80001 15.6001Z" fill="#F5492F"/>
<path d="M8.00002 15.6001H7.20002C6.75822 15.6001 6.40002 15.9583 6.40002 16.4001V17.2001C6.40002 17.6419 6.75822 18.0001 7.20002 18.0001H8.00002C8.44182 18.0001 8.80002 17.6419 8.80002 17.2001V16.4001C8.80002 15.9583 8.44182 15.6001 8.00002 15.6001Z" fill="#F5492F"/>
<path d="M4.80001 18.7998H4.00001C3.55821 18.7998 3.20001 19.158 3.20001 19.5998V20.3998C3.20001 20.8416 3.55821 21.1998 4.00001 21.1998H4.80001C5.24181 21.1998 5.60001 20.8416 5.60001 20.3998V19.5998C5.60001 19.158 5.24181 18.7998 4.80001 18.7998Z" fill="#F5492F"/>
<path d="M8.00002 18.7998H7.20002C6.75822 18.7998 6.40002 19.158 6.40002 19.5998V20.3998C6.40002 20.8416 6.75822 21.1998 7.20002 21.1998H8.00002C8.44182 21.1998 8.80002 20.8416 8.80002 20.3998V19.5998C8.80002 19.158 8.44182 18.7998 8.00002 18.7998Z" fill="#F5492F"/>
<path d="M4.80001 22H4.00001C3.55821 22 3.20001 22.3582 3.20001 22.8V23.6C3.20001 24.0418 3.55821 24.4 4.00001 24.4H4.80001C5.24181 24.4 5.60001 24.0418 5.60001 23.6V22.8C5.60001 22.3582 5.24181 22 4.80001 22Z" fill="#F5492F"/>
<path d="M8.00002 22H7.20002C6.75822 22 6.40002 22.3582 6.40002 22.8V23.6C6.40002 24.0418 6.75822 24.4 7.20002 24.4H8.00002C8.44182 24.4 8.80002 24.0418 8.80002 23.6V22.8C8.80002 22.3582 8.44182 22 8.00002 22Z" fill="#F5492F"/>
<path d="M4.80001 25.2002H4.00001C3.55821 25.2002 3.20001 25.5584 3.20001 26.0002V26.8002C3.20001 27.242 3.55821 27.6002 4.00001 27.6002H4.80001C5.24181 27.6002 5.60001 27.242 5.60001 26.8002V26.0002C5.60001 25.5584 5.24181 25.2002 4.80001 25.2002Z" fill="#F5492F"/>
<path d="M8.00002 25.2002H7.20002C6.75822 25.2002 6.40002 25.5584 6.40002 26.0002V26.8002C6.40002 27.242 6.75822 27.6002 7.20002 27.6002H8.00002C8.44182 27.6002 8.80002 27.242 8.80002 26.8002V26.0002C8.80002 25.5584 8.44182 25.2002 8.00002 25.2002Z" fill="#F5492F"/>
<path d="M4.80001 28.3999H4.00001C3.55821 28.3999 3.20001 28.7581 3.20001 29.1999V29.9999C3.20001 30.4417 3.55821 30.7999 4.00001 30.7999H4.80001C5.24181 30.7999 5.60001 30.4417 5.60001 29.9999V29.1999C5.60001 28.7581 5.24181 28.3999 4.80001 28.3999Z" fill="#F5492F"/>
<path d="M8.00002 28.3999H7.20002C6.75822 28.3999 6.40002 28.7581 6.40002 29.1999V29.9999C6.40002 30.4417 6.75822 30.7999 7.20002 30.7999H8.00002C8.44182 30.7999 8.80002 30.4417 8.80002 29.9999V29.1999C8.80002 28.7581 8.44182 28.3999 8.00002 28.3999Z" fill="#F5492F"/>
<path d="M4.80001 31.6001H4.00001C3.55821 31.6001 3.20001 31.9583 3.20001 32.4001V33.2001C3.20001 33.6419 3.55821 34.0001 4.00001 34.0001H4.80001C5.24181 34.0001 5.60001 33.6419 5.60001 33.2001V32.4001C5.60001 31.9583 5.24181 31.6001 4.80001 31.6001Z" fill="#F5492F"/>
<path d="M8.00002 31.6001H7.20002C6.75822 31.6001 6.40002 31.9583 6.40002 32.4001V33.2001C6.40002 33.6419 6.75822 34.0001 7.20002 34.0001H8.00002C8.44182 34.0001 8.80002 33.6419 8.80002 33.2001V32.4001C8.80002 31.9583 8.44182 31.6001 8.00002 31.6001Z" fill="#F5492F"/>
<path d="M4.80001 34.7998H4.00001C3.55821 34.7998 3.20001 35.158 3.20001 35.5998V36.3998C3.20001 36.8416 3.55821 37.1998 4.00001 37.1998H4.80001C5.24181 37.1998 5.60001 36.8416 5.60001 36.3998V35.5998C5.60001 35.158 5.24181 34.7998 4.80001 34.7998Z" fill="#F5492F"/>
<path d="M8.00002 34.7998H7.20002C6.75822 34.7998 6.40002 35.158 6.40002 35.5998V36.3998C6.40002 36.8416 6.75822 37.1998 7.20002 37.1998H8.00002C8.44182 37.1998 8.80002 36.8416 8.80002 36.3998V35.5998C8.80002 35.158 8.44182 34.7998 8.00002 34.7998Z" fill="#F5492F"/>
<path d="M4.80001 38H4.00001C3.55821 38 3.20001 38.3582 3.20001 38.8V39.6C3.20001 40.0418 3.55821 40.4 4.00001 40.4H4.80001C5.24181 40.4 5.60001 40.0418 5.60001 39.6V38.8C5.60001 38.3582 5.24181 38 4.80001 38Z" fill="#F5492F"/>
<path d="M8.00002 38H7.20002C6.75822 38 6.40002 38.3582 6.40002 38.8V39.6C6.40002 40.0418 6.75822 40.4 7.20002 40.4H8.00002C8.44182 40.4 8.80002 40.0418 8.80002 39.6V38.8C8.80002 38.3582 8.44182 38 8.00002 38Z" fill="#F5492F"/>
<path d="M4.80001 41.2002H4.00001C3.55821 41.2002 3.20001 41.5584 3.20001 42.0002V42.8002C3.20001 43.242 3.55821 43.6002 4.00001 43.6002H4.80001C5.24181 43.6002 5.60001 43.242 5.60001 42.8002V42.0002C5.60001 41.5584 5.24181 41.2002 4.80001 41.2002Z" fill="#F5492F"/>
<path d="M8.00002 41.2002H7.20002C6.75822 41.2002 6.40002 41.5584 6.40002 42.0002V42.8002C6.40002 43.242 6.75822 43.6002 7.20002 43.6002H8.00002C8.44182 43.6002 8.80002 43.242 8.80002 42.8002V42.0002C8.80002 41.5584 8.44182 41.2002 8.00002 41.2002Z" fill="#F5492F"/>
<path d="M44 10.7998H40.8C40.3582 10.7998 40 11.158 40 11.5998V14.7998C40 15.2416 40.3582 15.5998 40.8 15.5998H44C44.4418 15.5998 44.8 15.2416 44.8 14.7998V11.5998C44.8 11.158 44.4418 10.7998 44 10.7998ZM43.2 13.9998H41.6V12.3998H43.2V13.9998Z" fill="#F5492F"/>
<path d="M44 17.2002H40.8C40.3582 17.2002 40 17.5584 40 18.0002V21.2002C40 21.642 40.3582 22.0002 40.8 22.0002H44C44.4418 22.0002 44.8 21.642 44.8 21.2002V18.0002C44.8 17.5584 44.4418 17.2002 44 17.2002ZM43.2 20.4002H41.6V18.8002H43.2V20.4002Z" fill="#F5492F"/>
<path d="M44 23.6001H40.8C40.3582 23.6001 40 23.9583 40 24.4001V27.6001C40 28.0419 40.3582 28.4001 40.8 28.4001H44C44.4418 28.4001 44.8 28.0419 44.8 27.6001V24.4001C44.8 23.9583 44.4418 23.6001 44 23.6001ZM43.2 26.8001H41.6V25.2001H43.2V26.8001Z" fill="#F5492F"/>
<path d="M44 30H40.8C40.3582 30 40 30.3582 40 30.8V34C40 34.4418 40.3582 34.8 40.8 34.8H44C44.4418 34.8 44.8 34.4418 44.8 34V30.8C44.8 30.3582 44.4418 30 44 30ZM43.2 33.2H41.6V31.6H43.2V33.2Z" fill="#F5492F"/>
<path d="M44 36.3999H40.8C40.3582 36.3999 40 36.7581 40 37.1999V40.3999C40 40.8417 40.3582 41.1999 40.8 41.1999H44C44.4418 41.1999 44.8 40.8417 44.8 40.3999V37.1999C44.8 36.7581 44.4418 36.3999 44 36.3999ZM43.2 39.5999H41.6V37.9999H43.2V39.5999Z" fill="#F5492F"/>
</svg>
