<svg width="48" height="48" viewBox="0 0 48 48" fill="none" xmlns="http://www.w3.org/2000/svg">
<path d="M47.9117 11.3824C47.7465 10.768 47.3435 10.2443 46.792 9.92675C46.2402 9.60766 45.584 9.52135 44.9685 9.68655C44.3538 9.85215 43.83 10.2548 43.5125 10.8063L43.1126 11.5023C42.7325 11.2839 42.2471 11.4124 42.0249 11.7905L39.9932 15.2536L39.2972 14.8536C39.1129 14.747 38.8934 14.7181 38.6879 14.7736C38.4821 14.8294 38.3071 14.9646 38.2013 15.1497C37.9845 15.532 38.1165 16.0179 38.4973 16.2374L39.1933 16.6373L32.3945 28.4193L30.7147 32.9068L29.9148 34.4023C29.4465 35.217 29.4965 36.2297 30.0429 36.994L28.2432 39.2014L27.7394 37.938C27.5121 37.3748 26.986 36.9889 26.381 36.9417C25.7757 36.894 25.1957 37.1932 24.8836 37.7138L24.5958 38.2016L24.324 35.0022C24.2615 34.2453 23.6753 33.6368 22.9215 33.5454C22.1673 33.4544 21.4534 33.9063 21.2124 34.6264L19.2448 40.5293C19.1073 40.9468 19.3323 41.3968 19.7486 41.5374C19.8267 41.5737 19.9107 41.5956 19.9966 41.601C20.3403 41.6022 20.6465 41.3831 20.7566 41.0574L22.7161 35.1545L22.9961 38.4016C23.0539 39.0944 23.5518 39.6705 24.2291 39.8275C24.9063 39.9845 25.607 39.6861 25.9635 39.0897L26.2596 38.6015L26.7556 39.8576C26.9661 40.3868 27.4422 40.7645 28.0058 40.8484C28.5693 40.9324 29.1349 40.7102 29.4911 40.2653L31.3548 37.906C31.561 37.9599 31.7735 37.9868 31.9867 37.986C32.844 37.9927 33.64 37.5412 34.0743 36.8019L34.8741 35.4661L37.9217 31.7629L44.7924 19.8368L45.4883 20.2367C45.6738 20.3429 45.809 20.5183 45.864 20.7249C45.9195 20.9299 45.8906 21.1487 45.7844 21.3326L42.5849 26.8758C42.4642 27.0578 42.4232 27.2812 42.4717 27.4945C42.5201 27.7073 42.6533 27.8913 42.8407 28.0034C43.0251 28.1104 43.2446 28.1393 43.45 28.0838C43.6558 28.028 43.8308 27.8928 43.9366 27.7077L47.1361 22.1645C47.4552 21.6126 47.5415 20.9565 47.3759 20.341C47.2103 19.7262 46.8076 19.2025 46.2562 18.885L45.5602 18.4851L47.5598 15.0216C47.7782 14.6416 47.6497 14.1565 47.272 13.9339L47.6719 13.2379C47.9996 12.6774 48.0863 12.008 47.9117 11.3824ZM44.8962 11.6061C45.0021 11.421 45.1778 11.2855 45.3844 11.2304C45.5899 11.1797 45.807 11.2082 45.9921 11.3105C46.1777 11.4163 46.3128 11.5921 46.3683 11.7983C46.419 12.0037 46.3905 12.2209 46.2882 12.406L45.8883 13.102L44.4963 12.3021L44.8962 11.6061ZM33.9942 33.9387L33.5943 33.7067L32.4105 33.0185L33.5462 29.9792L36.0657 31.4348L33.9942 33.9387ZM31.5946 36.25C31.2568 36.0145 31.1529 35.5614 31.3548 35.2021L31.7547 34.5065L33.1463 35.3064L32.7464 35.9942C32.6343 36.1887 32.446 36.3269 32.2269 36.3758C32.0078 36.4242 31.7786 36.3789 31.5946 36.25ZM36.9777 30.1233L34.2102 28.5236L40.6091 17.4372L43.3766 19.0369L36.9777 30.1233ZM44.1764 17.6532L41.4089 16.0534L43.0087 13.2859L45.7762 14.8857L44.1764 17.6532Z" fill="url(#paint0_linear)"/>
<path d="M12.6217 35.85L9.79052 38.6738L8.09471 36.978C7.78266 36.6679 7.27884 36.6679 6.96678 36.978C6.81524 37.1283 6.7301 37.3326 6.7301 37.5458C6.7301 37.7591 6.81524 37.9637 6.96678 38.1137L8.66258 39.8095C8.96253 40.1071 9.36793 40.2739 9.79052 40.2735C10.2154 40.2758 10.6244 40.1091 10.9263 39.8095L13.7496 36.978C14.0214 36.6604 14.0031 36.1875 13.7078 35.8922C13.4122 35.5966 12.9392 35.5782 12.6217 35.85Z" fill="url(#paint1_linear)"/>
<path d="M3.19946 38.0017C3.19946 41.757 6.24348 44.8006 9.99831 44.8006C13.7531 44.8006 16.7971 41.757 16.7971 38.0017C16.7971 37.56 16.439 37.2019 15.9973 37.2019C15.5556 37.2019 15.1974 37.56 15.1974 38.0017C15.1974 40.8731 12.8697 43.2008 9.99831 43.2008C7.12692 43.2008 4.79919 40.8731 4.79919 38.0017C4.79919 35.1304 7.12692 32.8026 9.99831 32.8026C11.1239 32.7995 12.2194 33.1647 13.1177 33.8427C13.4712 34.1079 13.9726 34.036 14.2374 33.6826C14.5026 33.3291 14.4311 32.828 14.0777 32.5628C12.0175 31.0178 9.26093 30.7694 6.95781 31.9208C4.65429 33.0725 3.19946 35.4268 3.19946 38.0017Z" fill="url(#paint2_linear)"/>
<path d="M28.7951 6.40686C29.2368 6.40686 29.595 6.04911 29.595 5.60699C29.595 5.16527 29.2368 4.80713 28.7951 4.80713H7.99864C7.55692 4.80713 7.19878 5.16527 7.19878 5.60699V8.80645C7.19878 9.24856 7.55692 9.60631 7.99864 9.60631H28.7951C29.2368 9.60631 29.595 9.24856 29.595 8.80645C29.595 8.36473 29.2368 8.00658 28.7951 8.00658H8.79851V6.40686H28.7951Z" fill="url(#paint3_linear)"/>
<path d="M10.3982 11.2061C9.9565 11.2061 9.59836 11.5642 9.59836 12.0059C9.59836 12.448 9.9565 12.8058 10.3982 12.8058H26.3955C26.8372 12.8058 27.1954 12.448 27.1954 12.0059C27.1954 11.5642 26.8372 11.2061 26.3955 11.2061H10.3982Z" fill="url(#paint4_linear)"/>
<path d="M31.1947 16.8052H13.5977C13.156 16.8052 12.7978 17.1633 12.7978 17.605C12.7978 18.0471 13.156 18.4049 13.5977 18.4049H31.1947C31.6364 18.4049 31.9946 18.0471 31.9946 17.605C31.9946 17.1633 31.6364 16.8052 31.1947 16.8052Z" fill="url(#paint5_linear)"/>
<path d="M23.1961 22.4044C23.1961 21.9626 22.8379 21.6045 22.3962 21.6045H6.39891C5.95719 21.6045 5.59904 21.9626 5.59904 22.4044C5.59904 22.8465 5.95719 23.2042 6.39891 23.2042H22.3962C22.8379 23.2042 23.1961 22.8465 23.1961 22.4044Z" fill="url(#paint6_linear)"/>
<path d="M31.1947 21.6045H25.5956C25.1539 21.6045 24.7958 21.9626 24.7958 22.4044C24.7958 22.8465 25.1539 23.2042 25.5956 23.2042H31.1947C31.6364 23.2042 31.9946 22.8465 31.9946 22.4044C31.9946 21.9626 31.6364 21.6045 31.1947 21.6045Z" fill="url(#paint7_linear)"/>
<path d="M14.3975 27.2037C14.8393 27.2037 15.1974 26.846 15.1974 26.4039C15.1974 25.9621 14.8393 25.604 14.3975 25.604H6.39891C5.95719 25.604 5.59904 25.9621 5.59904 26.4039C5.59904 26.846 5.95719 27.2037 6.39891 27.2037H14.3975Z" fill="url(#paint8_linear)"/>
<path d="M17.597 27.2037H23.196C23.6378 27.2037 23.9959 26.846 23.9959 26.4039C23.9959 25.9621 23.6378 25.604 23.196 25.604H17.597C17.1553 25.604 16.7971 25.9621 16.7971 26.4039C16.7971 26.846 17.1553 27.2037 17.597 27.2037Z" fill="url(#paint9_linear)"/>
<path d="M35.9938 36.8015C35.5521 36.8015 35.194 37.1597 35.194 37.6014V45.6C35.194 46.0422 34.8358 46.3999 34.3941 46.3999H2.39959C1.95787 46.3999 1.59973 46.0422 1.59973 45.6V2.4074C1.59973 1.96568 1.95787 1.60754 2.39959 1.60754H34.3941C34.8358 1.60754 35.194 1.96568 35.194 2.4074V17.4291C35.194 17.8708 35.5521 18.2289 35.9938 18.2289C36.4356 18.2289 36.7937 17.8708 36.7937 17.4291V2.4074C36.7937 1.08224 35.7193 0.0078125 34.3941 0.0078125H2.39959C1.07443 0.0078125 0 1.08224 0 2.4074V45.6C0 46.9256 1.07443 47.9996 2.39959 47.9996H34.3941C35.7193 47.9996 36.7937 46.9256 36.7937 45.6V37.6014C36.7937 37.1597 36.4356 36.8015 35.9938 36.8015Z" fill="url(#paint10_linear)"/>
<defs>
<linearGradient id="paint0_linear" x1="19.2044" y1="25.6027" x2="48" y2="25.6027" gradientUnits="userSpaceOnUse">
<stop stop-color="#EA0000"/>
<stop offset="1" stop-color="#F5492F"/>
</linearGradient>
<linearGradient id="paint1_linear" x1="6.7301" y1="37.9656" x2="13.942" y2="37.9656" gradientUnits="userSpaceOnUse">
<stop stop-color="#EA0000"/>
<stop offset="1" stop-color="#F5492F"/>
</linearGradient>
<linearGradient id="paint2_linear" x1="3.19946" y1="38.0018" x2="16.7971" y2="38.0018" gradientUnits="userSpaceOnUse">
<stop stop-color="#EA0000"/>
<stop offset="1" stop-color="#F5492F"/>
</linearGradient>
<linearGradient id="paint3_linear" x1="7.19878" y1="7.20671" x2="29.595" y2="7.20671" gradientUnits="userSpaceOnUse">
<stop stop-color="#EA0000"/>
<stop offset="1" stop-color="#F5492F"/>
</linearGradient>
<linearGradient id="paint4_linear" x1="9.59836" y1="12.0059" x2="27.1954" y2="12.0059" gradientUnits="userSpaceOnUse">
<stop stop-color="#EA0000"/>
<stop offset="1" stop-color="#F5492F"/>
</linearGradient>
<linearGradient id="paint5_linear" x1="12.7978" y1="17.605" x2="31.9946" y2="17.605" gradientUnits="userSpaceOnUse">
<stop stop-color="#EA0000"/>
<stop offset="1" stop-color="#F5492F"/>
</linearGradient>
<linearGradient id="paint6_linear" x1="5.59904" y1="22.4043" x2="23.1961" y2="22.4043" gradientUnits="userSpaceOnUse">
<stop stop-color="#EA0000"/>
<stop offset="1" stop-color="#F5492F"/>
</linearGradient>
<linearGradient id="paint7_linear" x1="24.7958" y1="22.4043" x2="31.9946" y2="22.4043" gradientUnits="userSpaceOnUse">
<stop stop-color="#EA0000"/>
<stop offset="1" stop-color="#F5492F"/>
</linearGradient>
<linearGradient id="paint8_linear" x1="5.59904" y1="26.4039" x2="15.1974" y2="26.4039" gradientUnits="userSpaceOnUse">
<stop stop-color="#EA0000"/>
<stop offset="1" stop-color="#F5492F"/>
</linearGradient>
<linearGradient id="paint9_linear" x1="16.7971" y1="26.4039" x2="23.9959" y2="26.4039" gradientUnits="userSpaceOnUse">
<stop stop-color="#EA0000"/>
<stop offset="1" stop-color="#F5492F"/>
</linearGradient>
<linearGradient id="paint10_linear" x1="-4.8188e-08" y1="24.0036" x2="36.7937" y2="24.0036" gradientUnits="userSpaceOnUse">
<stop stop-color="#EA0000"/>
<stop offset="1" stop-color="#F5492F"/>
</linearGradient>
</defs>
</svg>
