<svg width="48" height="48" viewBox="0 0 48 48" fill="none" xmlns="http://www.w3.org/2000/svg">
<g clip-path="url(#clip0)">
<path d="M29.856 24.2C29.1377 23.4875 28.0498 23.3019 27.136 23.736L25.896 22.504L27.592 20.8C28.5278 19.863 28.5278 18.345 27.592 17.408L27.032 16.84C28.096 15.768 28.696 15.36 28.832 14.336C29.8279 14.4844 30.8355 14.1554 31.552 13.448L32.688 12.312C32.9884 12.0119 33.1572 11.6047 33.1572 11.18C33.1572 10.7553 32.9884 10.3481 32.688 10.048L23.632 1.00799C23.0079 0.387635 22 0.387635 21.376 1.00799L20.24 2.13599C19.5301 2.85427 19.2009 3.86548 19.352 4.86399C18.8322 4.93173 18.349 5.16775 17.976 5.536L5.53599 17.976C5.1601 18.3542 4.92085 18.8468 4.85599 19.376C3.86399 19.2214 2.85692 19.5413 2.13599 20.24L1.00799 21.376C0.387635 22.0001 0.387635 23.0079 1.00799 23.632L10.056 32.688C10.3561 32.9885 10.7633 33.1573 11.188 33.1573C11.6126 33.1573 12.0199 32.9885 12.32 32.688L13.456 31.552C14.1837 30.8348 14.5152 29.8073 14.344 28.8C15.384 28.656 15.792 28.056 16.848 27C17.52 27.672 18 28.264 19.112 28.264C19.741 28.2699 20.3471 28.0286 20.8 27.592L22.496 25.896L23.728 27.136C23.2939 28.0498 23.4795 29.1378 24.192 29.856C31.792 37.44 11.2 16.8 41.168 46.832C42.732 48.3961 45.2679 48.3961 46.832 46.832C48.396 45.2679 48.396 42.7321 46.832 41.168C11.32 5.66399 45.72 40.056 29.856 24.2ZM38.912 42.304L42.304 38.912L43.432 40.04L40.04 43.432L38.912 42.304ZM28.16 31.552L31.552 28.16L41.152 37.76L37.76 41.152L28.16 31.552ZM21.376 3.27199L22.504 2.13599L31.552 11.2L30.4 12.32C30.0999 12.6204 29.6926 12.7893 29.268 12.7893C28.8433 12.7893 28.4361 12.6204 28.136 12.32L21.376 5.536C21.0755 5.23589 20.9067 4.82865 20.9067 4.40399C20.9067 3.97934 21.0755 3.5721 21.376 3.27199ZM12.32 30.4L11.2 31.552L2.13599 22.504L3.27199 21.376C3.5721 21.0756 3.97934 20.9067 4.40399 20.9067C4.82865 20.9067 5.23588 21.0756 5.53599 21.376L12.32 28.16C12.9298 28.7822 12.9298 29.7779 12.32 30.4ZM14.584 27.008C14.272 27.3182 13.768 27.3182 13.456 27.008L8.92799 22.48L10.624 20.8C10.7754 20.6498 10.8606 20.4453 10.8606 20.232C10.8606 20.0187 10.7754 19.8142 10.624 19.664C10.312 19.3538 9.80802 19.3538 9.49599 19.664L7.79999 21.376C6.55199 20.128 6.39999 20.096 6.39999 19.672C6.40087 19.4621 6.48419 19.261 6.63199 19.112L19.112 6.664C19.424 6.35382 19.928 6.35382 20.24 6.664L21.376 7.8L11.776 17.4C11.5509 17.6296 11.4852 17.9716 11.6091 18.2683C11.733 18.565 12.0225 18.7587 12.344 18.76C12.5566 18.7612 12.761 18.6777 12.912 18.528L22.512 8.928L27.04 13.456C27.3502 13.768 27.3502 14.272 27.04 14.584C27.112 14.584 26.928 14.656 14.584 27.032V27.008ZM19.672 26.44C19.36 26.7502 18.856 26.7502 18.544 26.44L17.976 25.872L25.896 17.952L26.464 18.52C26.7742 18.832 26.7742 19.336 26.464 19.648C23.256 22.88 27 19.152 19.672 26.464V26.44ZM24.8 23.632L25.896 24.8L24.8 25.896L23.632 24.8L24.8 23.632ZM25.128 28.16C25.1289 27.9462 25.2153 27.7417 25.368 27.592L27.624 25.336C27.7742 25.1846 27.9787 25.0994 28.192 25.0994C28.4053 25.0994 28.6098 25.1846 28.76 25.336L30.4 27.032L27.032 30.4C25.184 28.584 25.096 28.592 25.096 28.16H25.128ZM45.696 45.696C44.759 46.6319 43.241 46.6319 42.304 45.696L41.168 44.568L44.568 41.168L45.696 42.304C46.6318 43.241 46.6318 44.759 45.696 45.696Z" fill="#DD0324"/>
<path d="M29.856 24.2C29.1377 23.4875 28.0498 23.3019 27.136 23.736L25.896 22.504L27.592 20.8C28.5278 19.863 28.5278 18.345 27.592 17.408L27.032 16.84C28.096 15.768 28.696 15.36 28.832 14.336C29.8279 14.4844 30.8355 14.1554 31.552 13.448L32.688 12.312C32.9884 12.0119 33.1572 11.6047 33.1572 11.18C33.1572 10.7553 32.9884 10.3481 32.688 10.048L23.632 1.00799C23.0079 0.387635 22 0.387635 21.376 1.00799L20.24 2.13599C19.5301 2.85427 19.2009 3.86548 19.352 4.86399C18.8322 4.93173 18.349 5.16775 17.976 5.536L5.53599 17.976C5.1601 18.3542 4.92085 18.8468 4.85599 19.376C3.86399 19.2214 2.85692 19.5413 2.13599 20.24L1.00799 21.376C0.387635 22.0001 0.387635 23.0079 1.00799 23.632L10.056 32.688C10.3561 32.9885 10.7633 33.1573 11.188 33.1573C11.6126 33.1573 12.0199 32.9885 12.32 32.688L13.456 31.552C14.1837 30.8348 14.5152 29.8073 14.344 28.8C15.384 28.656 15.792 28.056 16.848 27C17.52 27.672 18 28.264 19.112 28.264C19.741 28.2699 20.3471 28.0286 20.8 27.592L22.496 25.896L23.728 27.136C23.2939 28.0498 23.4795 29.1378 24.192 29.856C31.792 37.44 11.2 16.8 41.168 46.832C42.732 48.3961 45.2679 48.3961 46.832 46.832C48.396 45.2679 48.396 42.7321 46.832 41.168C11.32 5.66399 45.72 40.056 29.856 24.2ZM38.912 42.304L42.304 38.912L43.432 40.04L40.04 43.432L38.912 42.304ZM28.16 31.552L31.552 28.16L41.152 37.76L37.76 41.152L28.16 31.552ZM21.376 3.27199L22.504 2.13599L31.552 11.2L30.4 12.32C30.0999 12.6204 29.6926 12.7893 29.268 12.7893C28.8433 12.7893 28.4361 12.6204 28.136 12.32L21.376 5.536C21.0755 5.23589 20.9067 4.82865 20.9067 4.40399C20.9067 3.97934 21.0755 3.5721 21.376 3.27199ZM12.32 30.4L11.2 31.552L2.13599 22.504L3.27199 21.376C3.5721 21.0756 3.97934 20.9067 4.40399 20.9067C4.82865 20.9067 5.23588 21.0756 5.53599 21.376L12.32 28.16C12.9298 28.7822 12.9298 29.7779 12.32 30.4ZM14.584 27.008C14.272 27.3182 13.768 27.3182 13.456 27.008L8.92799 22.48L10.624 20.8C10.7754 20.6498 10.8606 20.4453 10.8606 20.232C10.8606 20.0187 10.7754 19.8142 10.624 19.664C10.312 19.3538 9.80802 19.3538 9.49599 19.664L7.79999 21.376C6.55199 20.128 6.39999 20.096 6.39999 19.672C6.40087 19.4621 6.48419 19.261 6.63199 19.112L19.112 6.664C19.424 6.35382 19.928 6.35382 20.24 6.664L21.376 7.8L11.776 17.4C11.5509 17.6296 11.4852 17.9716 11.6091 18.2683C11.733 18.565 12.0225 18.7587 12.344 18.76C12.5566 18.7612 12.761 18.6777 12.912 18.528L22.512 8.928L27.04 13.456C27.3502 13.768 27.3502 14.272 27.04 14.584C27.112 14.584 26.928 14.656 14.584 27.032V27.008ZM19.672 26.44C19.36 26.7502 18.856 26.7502 18.544 26.44L17.976 25.872L25.896 17.952L26.464 18.52C26.7742 18.832 26.7742 19.336 26.464 19.648C23.256 22.88 27 19.152 19.672 26.464V26.44ZM24.8 23.632L25.896 24.8L24.8 25.896L23.632 24.8L24.8 23.632ZM25.128 28.16C25.1289 27.9462 25.2153 27.7417 25.368 27.592L27.624 25.336C27.7742 25.1846 27.9787 25.0994 28.192 25.0994C28.4053 25.0994 28.6098 25.1846 28.76 25.336L30.4 27.032L27.032 30.4C25.184 28.584 25.096 28.592 25.096 28.16H25.128ZM45.696 45.696C44.759 46.6319 43.241 46.6319 42.304 45.696L41.168 44.568L44.568 41.168L45.696 42.304C46.6318 43.241 46.6318 44.759 45.696 45.696Z" fill="url(#paint0_linear)"/>
<path d="M20 42.3999V41.5999C20 39.8326 18.5673 38.3999 16.8 38.3999H5.6C3.83269 38.3999 2.4 39.8326 2.4 41.5999V42.3999C1.07452 42.3999 0 43.4744 0 44.7999V47.1999C0 47.6417 0.358172 47.9999 0.8 47.9999H21.6C22.0418 47.9999 22.4 47.6417 22.4 47.1999V44.7999C22.4 43.4744 21.3255 42.3999 20 42.3999ZM4 41.5999C4 40.7162 4.71634 39.9999 5.6 39.9999H16.8C17.6837 39.9999 18.4 40.7162 18.4 41.5999V42.3999H4V41.5999ZM20.8 46.3999H1.6V44.7999C1.6 44.3581 1.95817 43.9999 2.4 43.9999H20C20.4418 43.9999 20.8 44.3581 20.8 44.7999V46.3999Z" fill="#DD0324"/>
<path d="M20 42.3999V41.5999C20 39.8326 18.5673 38.3999 16.8 38.3999H5.6C3.83269 38.3999 2.4 39.8326 2.4 41.5999V42.3999C1.07452 42.3999 0 43.4744 0 44.7999V47.1999C0 47.6417 0.358172 47.9999 0.8 47.9999H21.6C22.0418 47.9999 22.4 47.6417 22.4 47.1999V44.7999C22.4 43.4744 21.3255 42.3999 20 42.3999ZM4 41.5999C4 40.7162 4.71634 39.9999 5.6 39.9999H16.8C17.6837 39.9999 18.4 40.7162 18.4 41.5999V42.3999H4V41.5999ZM20.8 46.3999H1.6V44.7999C1.6 44.3581 1.95817 43.9999 2.4 43.9999H20C20.4418 43.9999 20.8 44.3581 20.8 44.7999V46.3999Z" fill="url(#paint1_linear)"/>
<path d="M20 35.1999V32C20 31.5581 19.6419 31.2 19.2 31.2C18.7582 31.2 18.4 31.5581 18.4 32V35.1999C18.4 35.6418 18.7582 35.9999 19.2 35.9999C19.6419 35.9999 20 35.6418 20 35.1999Z" fill="#DD0324"/>
<path d="M20 35.1999V32C20 31.5581 19.6419 31.2 19.2 31.2C18.7582 31.2 18.4 31.5581 18.4 32V35.1999C18.4 35.6418 18.7582 35.9999 19.2 35.9999C19.6419 35.9999 20 35.6418 20 35.1999Z" fill="url(#paint2_linear)"/>
<path d="M25.6 37.6001H22.4C21.9581 37.6001 21.6 37.9583 21.6 38.4001C21.6 38.8419 21.9581 39.2001 22.4 39.2001H25.6C26.0418 39.2001 26.4 38.8419 26.4 38.4001C26.4 37.9583 26.0418 37.6001 25.6 37.6001Z" fill="#DD0324"/>
<path d="M25.6 37.6001H22.4C21.9581 37.6001 21.6 37.9583 21.6 38.4001C21.6 38.8419 21.9581 39.2001 22.4 39.2001H25.6C26.0418 39.2001 26.4 38.8419 26.4 38.4001C26.4 37.9583 26.0418 37.6001 25.6 37.6001Z" fill="url(#paint3_linear)"/>
<path d="M22.168 36.5679L24.568 34.1679C24.8817 33.8542 24.8817 33.3456 24.568 33.0319C24.2543 32.7182 23.7457 32.7182 23.432 33.0319L21.032 35.4319C20.8013 35.6608 20.7319 36.0065 20.8565 36.3067C20.9812 36.6069 21.275 36.8018 21.6 36.7999C21.8127 36.8011 22.017 36.7177 22.168 36.5679Z" fill="#DD0324"/>
<path d="M22.168 36.5679L24.568 34.1679C24.8817 33.8542 24.8817 33.3456 24.568 33.0319C24.2543 32.7182 23.7457 32.7182 23.432 33.0319L21.032 35.4319C20.8013 35.6608 20.7319 36.0065 20.8565 36.3067C20.9812 36.6069 21.275 36.8018 21.6 36.7999C21.8127 36.8011 22.017 36.7177 22.168 36.5679Z" fill="url(#paint4_linear)"/>
</g>
<defs>
<linearGradient id="paint0_linear" x1="0.542725" y1="24.2738" x2="48.005" y2="24.2738" gradientUnits="userSpaceOnUse">
<stop stop-color="#EA0000"/>
<stop offset="1" stop-color="#F5492F"/>
</linearGradient>
<linearGradient id="paint1_linear" x1="-2.93368e-08" y1="43.1999" x2="22.4" y2="43.1999" gradientUnits="userSpaceOnUse">
<stop stop-color="#EA0000"/>
<stop offset="1" stop-color="#F5492F"/>
</linearGradient>
<linearGradient id="paint2_linear" x1="18.4" y1="33.5999" x2="20" y2="33.5999" gradientUnits="userSpaceOnUse">
<stop stop-color="#EA0000"/>
<stop offset="1" stop-color="#F5492F"/>
</linearGradient>
<linearGradient id="paint3_linear" x1="21.6" y1="38.4001" x2="26.4" y2="38.4001" gradientUnits="userSpaceOnUse">
<stop stop-color="#EA0000"/>
<stop offset="1" stop-color="#F5492F"/>
</linearGradient>
<linearGradient id="paint4_linear" x1="20.7953" y1="34.7983" x2="24.8033" y2="34.7983" gradientUnits="userSpaceOnUse">
<stop stop-color="#EA0000"/>
<stop offset="1" stop-color="#F5492F"/>
</linearGradient>
<clipPath id="clip0">
<rect width="48" height="48" fill="white"/>
</clipPath>
</defs>
</svg>
