<svg width="48" height="48" viewBox="0 0 48 48" fill="none" xmlns="http://www.w3.org/2000/svg">
<g clip-path="url(#clip0)">
<path d="M42.472 33.874C42.2087 33.7649 41.9057 33.8252 41.7042 34.0266L34.0049 41.726C33.8034 41.9275 33.7431 42.2305 33.8522 42.4938C33.9612 42.7571 34.2182 42.9287 34.5031 42.9287H42.2025C42.5916 42.9287 42.907 42.6133 42.907 42.2242V34.5248C42.9069 34.2399 42.7352 33.983 42.472 33.874ZM36.2038 41.5197L41.4977 36.2257V41.5197H36.2038Z" fill="url(#paint0_linear)"/>
<path d="M47.5652 22.5816C47.3019 22.4725 46.9989 22.5328 46.7974 22.7342L44.6873 24.8443V10.4976C44.6873 10.1084 44.3719 9.79304 43.9828 9.79304H38.5696L40.5346 7.82804C40.5349 7.82776 40.5351 7.82738 40.5354 7.8271L42.4288 5.93372C42.8345 5.52807 43.0579 4.98844 43.0579 4.41469C43.0579 3.84094 42.8345 3.3015 42.4288 2.89565L40.2394 0.706212C39.8337 0.300555 39.2941 0.0771484 38.7203 0.0771484C38.1466 0.0771484 37.607 0.300555 37.2013 0.706212L35.307 2.60053L33.018 4.88953L28.1146 9.79295H6.24564V2.82309C6.24564 2.43393 5.93017 2.11856 5.54111 2.11856C2.48579 2.11875 0 4.60435 0 7.65985V37.5836C0 37.6356 0.00600001 37.6863 0.0166875 37.735C0.114 39.0315 0.674908 40.2361 1.61232 41.1505C2.61432 42.1278 3.93704 42.666 5.33692 42.666H26.8655L22.8109 46.7206C22.6095 46.9221 22.5492 47.2251 22.6582 47.4884C22.7672 47.7516 23.0242 47.9233 23.3091 47.9233H47.2956C47.6846 47.9233 48.0001 47.6079 48.0001 47.2188V23.2325C48.0001 22.9476 47.8283 22.6906 47.5652 22.5816ZM38.1979 1.70268C38.4859 1.41449 38.9551 1.41449 39.2431 1.70268L41.4326 3.89222C41.7208 4.18031 41.7208 4.64935 41.4326 4.93753L40.0366 6.33366L36.8016 3.09881L38.1979 1.70268ZM35.8053 4.09519L39.0401 7.32994L37.7474 8.62267L34.5127 5.38791L35.8053 4.09519ZM46.5912 31.149H45.2914C44.9022 31.149 44.5868 31.4643 44.5868 31.8535C44.5868 32.2426 44.9022 32.558 45.2914 32.558H46.5912V34.6811H45.2914C44.9022 34.6811 44.5868 34.9965 44.5868 35.3856C44.5868 35.7748 44.9022 36.0902 45.2914 36.0902H46.5912V38.2131H45.2914C44.9022 38.2131 44.5868 38.5285 44.5868 38.9177C44.5868 39.3068 44.9022 39.6222 45.2914 39.6222H46.5912V41.7453H45.2914C44.9022 41.7453 44.5868 42.0607 44.5868 42.4498C44.5868 42.839 44.9022 43.1543 45.2914 43.1543H46.5912V46.5145H25.0099L32.1263 39.3982C32.4015 39.123 32.4015 38.677 32.1263 38.4018C32.0947 38.3703 32.0608 38.3429 32.0253 38.3185C31.7509 38.1306 31.3735 38.1583 31.1298 38.4018L28.2746 41.2571H5.33701C3.20026 41.2571 1.48013 39.5889 1.41244 37.456C1.41647 37.3221 1.42688 37.1894 1.44357 37.0581C1.44366 37.0574 1.44375 37.0566 1.44385 37.0559C1.45172 36.9935 1.46119 36.9315 1.47197 36.8698C1.47319 36.8628 1.4745 36.8557 1.47572 36.8487C1.48557 36.7937 1.49663 36.7389 1.50872 36.6843C1.5121 36.6692 1.51566 36.654 1.51922 36.6389C1.52991 36.5928 1.54144 36.5469 1.55382 36.5013C1.56057 36.4765 1.5676 36.452 1.57482 36.4274C1.58513 36.3916 1.59582 36.3558 1.60716 36.3205C1.6185 36.2852 1.6306 36.2502 1.64288 36.2152C1.65141 36.1908 1.65985 36.1663 1.66903 36.142C1.68619 36.0959 1.70438 36.0502 1.72313 36.0049C1.72847 35.9919 1.73372 35.9787 1.73925 35.9657C1.76335 35.9094 1.78838 35.8538 1.81482 35.7989C1.81594 35.7965 1.81697 35.7942 1.8181 35.7918C2.36916 34.6515 3.42901 33.8012 4.70092 33.5374C4.70448 33.5367 4.70804 33.5358 4.7116 33.5351C4.76992 33.5232 4.82879 33.513 4.88804 33.5035C4.89789 33.5019 4.90773 33.4999 4.91776 33.4984C4.97129 33.4903 5.02539 33.4839 5.07948 33.4778C5.09467 33.4761 5.10976 33.4738 5.12504 33.4723C5.17726 33.467 5.22995 33.4636 5.28264 33.4603C5.29932 33.4592 5.31601 33.4575 5.3327 33.4566C5.4017 33.4532 5.47126 33.4514 5.54111 33.4514C5.93017 33.4514 6.24564 33.136 6.24564 32.7468V27.6385C6.24564 27.2493 5.93017 26.934 5.54111 26.934C5.15204 26.934 4.83657 27.2493 4.83657 27.6385V32.0866C3.64688 32.2371 2.5426 32.7677 1.67185 33.6181C1.58025 33.7075 1.49344 33.8005 1.40888 33.895V7.65985C1.40888 5.62163 2.89257 3.92316 4.83648 3.58772V10.4976V24.8204V24.8205C4.83648 25.2096 5.15195 25.5251 5.54101 25.5251C5.93007 25.5251 6.24554 25.2096 6.24554 24.8205V24.8204V11.2021H26.7056L22.8108 15.0969C22.5357 15.3721 22.5357 15.8181 22.8108 16.0932C23.086 16.3683 23.532 16.3683 23.8071 16.0932L28.9046 10.9958C28.9048 10.9956 28.9049 10.9954 28.9051 10.9953L33.5162 6.38419L36.7508 9.61904L36.3713 9.99854C36.371 9.99883 36.3707 9.99911 36.3704 9.99939L22.1646 24.2054L18.9299 20.9706L21.73 18.1705C22.0051 17.8952 22.0051 17.4492 21.73 17.1741C21.4548 16.899 21.0088 16.899 20.7337 17.1741L17.4353 20.4724C17.4177 20.49 17.4012 20.5087 17.3857 20.5278C17.3805 20.5342 17.3759 20.541 17.3711 20.5477C17.3611 20.5609 17.3514 20.5742 17.3423 20.5881C17.3371 20.5962 17.3324 20.6044 17.3276 20.6128C17.3198 20.6259 17.3123 20.6392 17.3054 20.6528C17.3009 20.6616 17.2969 20.6705 17.2928 20.6797C17.2865 20.6935 17.2807 20.7075 17.2753 20.7216C17.2735 20.7266 17.271 20.7313 17.2693 20.7362L15.8967 24.6245L14.9608 27.2757C14.9485 27.3109 14.9396 27.3467 14.9329 27.3828H12.5899C12.2008 27.3828 11.8854 27.6982 11.8854 28.0874C11.8854 28.4765 12.2008 28.7919 12.5899 28.7919H32.1006C32.4898 28.7919 32.8052 28.4765 32.8052 28.0874C32.8052 27.6982 32.4898 27.3828 32.1006 27.3828H18.1025L22.3991 25.8661C22.4026 25.8648 22.406 25.863 22.4096 25.8617C22.4263 25.8555 22.4427 25.8486 22.4589 25.8412C22.4654 25.8382 22.4718 25.8354 22.4781 25.8323C22.495 25.8239 22.5116 25.8146 22.5279 25.8046C22.5331 25.8014 22.5386 25.7985 22.5437 25.7953C22.5607 25.7844 22.5772 25.7725 22.5934 25.7599C22.5975 25.7568 22.6017 25.7541 22.6056 25.7509C22.6252 25.7352 22.6444 25.7182 22.6626 25.7L37.1605 11.2022H43.2782V26.2534L33.2004 36.3313C32.9253 36.6065 32.9253 37.0525 33.2004 37.3277C33.2176 37.3448 33.2355 37.3609 33.2539 37.376C33.3831 37.4813 33.5409 37.534 33.6986 37.534C33.8563 37.534 34.0142 37.4813 34.1433 37.376C34.1617 37.361 34.1796 37.3448 34.1968 37.3277C34.1971 37.3274 34.1968 37.3277 34.1971 37.3274L46.5912 24.9331V31.149ZM20.876 24.9093L18.8579 25.6217L17.5134 24.2772L18.2258 22.2591L20.876 24.9093Z" fill="url(#paint1_linear)"/>
</g>
<defs>
<linearGradient id="paint0_linear" x1="33.7985" y1="38.3745" x2="42.907" y2="38.3745" gradientUnits="userSpaceOnUse">
<stop stop-color="#EA0000"/>
<stop offset="1" stop-color="#F5492F"/>
</linearGradient>
<linearGradient id="paint1_linear" x1="-6.28647e-08" y1="24.0001" x2="48.0001" y2="24.0001" gradientUnits="userSpaceOnUse">
<stop stop-color="#EA0000"/>
<stop offset="1" stop-color="#F5492F"/>
</linearGradient>
<clipPath id="clip0">
<rect width="48" height="48" fill="white"/>
</clipPath>
</defs>
</svg>
