<svg width="48" height="48" viewBox="0 0 48 48" fill="none" xmlns="http://www.w3.org/2000/svg">
<g clip-path="url(#clip0)">
<path d="M0.151857 4.40332L3.35307 10.0051C3.46105 10.1944 3.64179 10.3314 3.85314 10.3844L6.83971 11.131L17.083 21.3743L18.2148 20.2428L7.81121 9.83953C7.70882 9.73682 7.58043 9.66406 7.43986 9.62884L4.57015 8.90886L1.84464 4.13666L4.18136 1.79994L8.95553 4.52809L9.67584 7.39779C9.71073 7.53869 9.78382 7.66741 9.8862 7.7698L20.2898 18.1734L21.4213 17.0416L11.178 6.79831L10.4314 3.81338C10.3784 3.6017 10.2414 3.42063 10.0521 3.31232L4.44999 0.111436C4.13758 -0.0663359 3.7445 -0.0136627 3.48969 0.240157L0.288807 3.44137C0.0313664 3.69453 -0.0245989 4.08827 0.151857 4.40332Z" fill="url(#paint0_linear)"/>
<path d="M33.4232 15.7721L15.8175 33.3781L14.6857 32.2463L32.2917 14.6406L33.4232 15.7721Z" fill="url(#paint1_linear)"/>
<path d="M12.7361 34.0009C12.5913 33.7599 12.3312 33.6128 12.0501 33.6128H7.24858C6.96776 33.6128 6.70736 33.7599 6.56284 34.0009L4.16192 38.0021C4.0095 38.2556 4.0095 38.5727 4.16192 38.8265L6.56284 42.8277C6.70736 43.0683 6.96776 43.2158 7.24858 43.2158H12.0501C12.3312 43.2158 12.5913 43.0683 12.7361 42.8277L15.1367 38.8265C15.2891 38.5727 15.2891 38.2556 15.1367 38.0021L12.7361 34.0009ZM11.5974 41.6152H7.70157L5.78097 38.4143L7.70157 35.2131H11.5974L13.518 38.4143L11.5974 41.6152Z" fill="url(#paint2_linear)"/>
<path d="M38.4588 19.2079C43.7443 19.2257 48.0437 14.9552 48.0615 9.6698C48.0641 8.86522 47.9654 8.06393 47.7675 7.28403C47.6608 6.85508 47.2266 6.59401 46.7977 6.70068C46.6568 6.7359 46.5284 6.80866 46.4257 6.91104L41.4441 11.8893L37.4916 10.5722L36.1735 6.62068L41.155 1.63812C41.4675 1.32537 41.4671 0.818721 41.1544 0.506303C41.0513 0.403261 40.9216 0.330177 40.7797 0.295281C35.654 -1.00279 30.4469 2.1 29.1488 7.22543C28.9516 8.00302 28.8532 8.80234 28.8558 9.60462C28.8578 10.2347 28.9227 10.8629 29.0504 11.4798L11.5244 29.0055C10.9074 28.8781 10.2793 28.8132 9.64952 28.8109C4.34566 28.8109 0.0462036 33.1104 0.0462036 38.4143C0.0462036 43.7178 4.34566 48.0172 9.64952 48.0172C14.9531 48.0172 19.2525 43.7178 19.2525 38.4143C19.2505 37.7842 19.1854 37.156 19.058 36.5391L23.2537 32.3433L25.0887 34.1783C25.4015 34.4908 25.9078 34.4908 26.2205 34.1783L26.6205 33.778C26.9715 33.4294 27.5387 33.4294 27.8896 33.778C28.2402 34.1276 28.2409 34.6952 27.8913 35.0458C27.8909 35.0461 27.8903 35.0468 27.8896 35.0474L27.4896 35.4474C27.1772 35.7599 27.1772 36.2665 27.4896 36.5789L37.036 46.1253C39.5469 48.6592 43.6363 48.6776 46.1702 46.1668C48.7038 43.6559 48.7222 39.5662 46.2113 37.0326C46.1978 37.0187 46.184 37.0049 46.1702 36.9911L36.6238 27.4451C36.3114 27.1326 35.8048 27.1326 35.4923 27.4451L35.0924 27.845C34.7411 28.194 34.1742 28.194 33.8229 27.845C33.4726 27.4954 33.4717 26.9279 33.8213 26.5776C33.8219 26.5769 33.8226 26.5766 33.8229 26.5759L34.2232 26.1756C34.5357 25.8632 34.5357 25.3566 34.2232 25.0441L32.3882 23.2091L36.584 19.0134C37.2009 19.1408 37.8291 19.206 38.4588 19.2079ZM41.6031 46.417C41.0217 46.416 40.4453 46.311 39.9011 46.1065L46.1511 39.8562C47.0943 42.3651 45.8252 45.1633 43.3163 46.1065C42.7688 46.3123 42.1884 46.4176 41.6031 46.417ZM32.537 25.6179C31.6508 26.675 31.7897 28.2506 32.8468 29.1365C33.7758 29.9151 35.1299 29.9144 36.0579 29.1342L45.0387 38.1229C45.1362 38.2207 45.2273 38.3237 45.3156 38.4284L38.4733 45.2707C38.3683 45.1828 38.2653 45.0916 38.1675 44.9938L29.1798 36.0054C30.066 34.9484 29.9271 33.3728 28.87 32.4869C27.941 31.708 26.5866 31.709 25.6586 32.4888L24.3783 31.2086L31.2564 24.3406L32.537 25.6179ZM35.7685 17.5691L17.6144 35.7197C17.4152 35.9185 17.3352 36.2072 17.403 36.4802C18.5009 40.7918 15.8956 45.1772 11.5836 46.2747C7.27199 47.3727 2.88661 44.7673 1.7887 40.4553C0.691122 36.1437 3.29647 31.7583 7.60844 30.6604C8.91276 30.3286 10.2793 30.3286 11.5836 30.6604C11.8565 30.7273 12.1446 30.6473 12.3441 30.4494L30.494 12.2985C30.6928 12.0997 30.7728 11.811 30.7043 11.5384C29.614 7.27712 32.1845 2.93882 36.4457 1.84815C37.251 1.6424 38.0839 1.56339 38.9135 1.61508L34.692 5.83815C34.4777 6.05214 34.4027 6.36917 34.4985 6.65656L36.0987 11.4584C36.1787 11.6971 36.3664 11.8847 36.6054 11.9641L41.4072 13.5647C41.6943 13.6605 42.0113 13.5857 42.2256 13.3717L46.4471 9.15031C46.4566 9.30307 46.4615 9.45417 46.4615 9.60462C46.4839 14.0018 42.9377 17.5846 38.5405 17.6073C37.8607 17.6106 37.1831 17.527 36.5247 17.3585C36.2518 17.2903 35.9631 17.37 35.7643 17.5688H35.7685V17.5691Z" fill="url(#paint3_linear)"/>
<path d="M41.4263 40.249L40.2945 41.3808L32.2921 33.3784L33.4236 32.2466L41.4263 40.249Z" fill="url(#paint4_linear)"/>
</g>
<defs>
<linearGradient id="paint0_linear" x1="0.0496216" y1="10.6905" x2="21.4213" y2="10.6905" gradientUnits="userSpaceOnUse">
<stop stop-color="#EA0000"/>
<stop offset="1" stop-color="#F5492F"/>
</linearGradient>
<linearGradient id="paint1_linear" x1="14.6857" y1="24.0093" x2="33.4232" y2="24.0093" gradientUnits="userSpaceOnUse">
<stop stop-color="#EA0000"/>
<stop offset="1" stop-color="#F5492F"/>
</linearGradient>
<linearGradient id="paint2_linear" x1="4.04761" y1="38.4143" x2="15.251" y2="38.4143" gradientUnits="userSpaceOnUse">
<stop stop-color="#EA0000"/>
<stop offset="1" stop-color="#F5492F"/>
</linearGradient>
<linearGradient id="paint3_linear" x1="0.0462036" y1="24.0188" x2="48.0825" y2="24.0188" gradientUnits="userSpaceOnUse">
<stop stop-color="#EA0000"/>
<stop offset="1" stop-color="#F5492F"/>
</linearGradient>
<linearGradient id="paint4_linear" x1="32.2921" y1="36.8136" x2="41.4263" y2="36.8136" gradientUnits="userSpaceOnUse">
<stop stop-color="#EA0000"/>
<stop offset="1" stop-color="#F5492F"/>
</linearGradient>
<clipPath id="clip0">
<rect width="48" height="48" fill="white"/>
</clipPath>
</defs>
</svg>
