<svg width="48" height="48" viewBox="0 0 48 48" fill="none" xmlns="http://www.w3.org/2000/svg">
<g clip-path="url(#clip0)">
<path d="M45.8383 29.4194H45.2274C44.3077 29.4194 43.5135 29.9932 43.2046 30.8377L33.2902 29.5161V20.9032C33.2902 20.177 32.9432 19.4826 32.361 19.0452L27.0967 15.0968V14.7097H28.7233C29.0832 16.4739 30.6463 17.8065 32.516 17.8065C34.6503 17.8065 36.387 16.0698 36.387 13.9355C36.387 12.6649 35.7629 11.5449 34.8148 10.8387H34.8386V6.19355H25.5483V5.27986L33.2902 3.73148V0H30.9676L19.3547 2.47039V3.87097H13.9354V5.41935H12.8005C5.74207 5.41935 -0.00012207 11.1615 -0.00012207 18.22C-0.00012207 22.1295 1.75126 25.7729 4.80381 28.2153L11.6128 33.6627V44.129C11.6128 46.2634 13.3494 48 15.4837 48H29.4192C31.5536 48 33.2902 46.2634 33.2902 44.129V40.5896L40.3022 43.139C40.2795 43.2634 40.2579 43.3881 40.2579 43.5159C40.2579 44.7082 41.228 45.6774 42.4195 45.6774H43.0304C44.0382 45.6774 44.9031 44.9924 45.1345 44.0115L47.9417 32.0788C47.9806 31.9177 47.9999 31.7495 47.9999 31.5809C47.9999 30.3886 47.0299 29.4194 45.8383 29.4194ZM11.6128 20.9032V27.0117L7.4428 23.5997C5.66457 22.145 4.64504 19.9929 4.64504 17.6942C4.64504 13.4871 8.06767 10.0645 12.2747 10.0645H13.9354V11.6129H17.8063V15.0968L12.5412 19.0452C11.9598 19.4826 11.6128 20.177 11.6128 20.9032ZM19.3547 13.1613H25.5483V14.7097H19.3547V13.1613ZM32.516 16.2581C31.2356 16.2581 30.1934 15.2159 30.1934 13.9355C30.1934 12.6551 31.2356 11.6129 32.516 11.6129C33.7964 11.6129 34.8386 12.6551 34.8386 13.9355C34.8386 15.2159 33.7964 16.2581 32.516 16.2581ZM28.7233 13.1613H27.0967V10.8387H30.2172C29.4665 11.3978 28.9168 12.2121 28.7233 13.1613ZM33.2902 9.29032H25.5483V11.6129H19.3547V7.74194H33.2902V9.29032ZM31.0489 1.54839H31.7418V2.46207L23.9999 4.01046V6.19355H20.9031V3.72316L31.0489 1.54839ZM15.4837 5.41935H19.3547V6.19355H17.8063V10.0645H15.4837V5.41935ZM5.77155 27.006C3.0872 24.8592 1.54826 21.6566 1.54826 18.22C1.54826 12.0155 6.59602 6.96774 12.8005 6.96774H13.9354V8.51613H12.2747C7.21371 8.51613 3.09665 12.6332 3.09665 17.6942C3.09665 20.4579 4.32372 23.0478 6.46371 24.798L11.6128 29.0122V31.6799L5.77155 27.006ZM29.4192 46.4516H15.4837C14.2034 46.4516 13.1612 45.4094 13.1612 44.129V21.6774H26.3225V20.129H13.6768L18.8383 16.2581H26.0646L31.2262 20.129H27.8708V21.6774H31.7418V44.129C31.7418 45.4094 30.6996 46.4516 29.4192 46.4516ZM33.2902 31.0777L42.8259 32.349L40.6458 41.6159L33.2902 38.941V31.0777ZM46.4352 31.7219L43.6273 43.6569C43.5623 43.9347 43.3162 44.129 43.0304 44.129H42.4195C42.0812 44.129 41.8063 43.8542 41.8063 43.5159C41.8063 43.4679 41.8116 43.4214 41.8226 43.3749L44.6305 31.4399C44.6956 31.162 44.9417 30.9677 45.2274 30.9677H45.8383C46.1767 30.9677 46.4515 31.2426 46.4515 31.5809C46.4515 31.6289 46.4462 31.6754 46.4352 31.7219Z" fill="url(#paint0_linear)"/>
<path d="M14.7095 44.129H30.1934V24H14.7095V44.129ZM16.2579 25.5484H28.645V42.5806H16.2579V25.5484Z" fill="url(#paint1_linear)"/>
<path d="M22.4515 31.7418C23.7319 31.7418 24.7741 30.6996 24.7741 29.4193C24.7741 28.1389 23.7319 27.0967 22.4515 27.0967C21.1711 27.0967 20.1289 28.1389 20.1289 29.4193C20.1289 30.6996 21.1711 31.7418 22.4515 31.7418ZM22.4515 28.6451C22.8787 28.6451 23.2257 28.9928 23.2257 29.4193C23.2257 29.8457 22.8787 30.1935 22.4515 30.1935C22.0243 30.1935 21.6773 29.8457 21.6773 29.4193C21.6773 28.9928 22.0243 28.6451 22.4515 28.6451Z" fill="url(#paint2_linear)"/>
<path d="M17.8063 33.2905H27.0967V34.8389H17.8063V33.2905Z" fill="url(#paint3_linear)"/>
<path d="M17.8063 36.3872H27.0967V37.9356H17.8063V36.3872Z" fill="url(#paint4_linear)"/>
<path d="M17.8063 39.4839H27.0967V41.0323H17.8063V39.4839Z" fill="url(#paint5_linear)"/>
</g>
<defs>
<linearGradient id="paint0_linear" x1="-0.000122133" y1="23.9999" x2="47.9999" y2="23.9999" gradientUnits="userSpaceOnUse">
<stop stop-color="#EA0000"/>
<stop offset="1" stop-color="#F5492F"/>
</linearGradient>
<linearGradient id="paint1_linear" x1="14.7095" y1="34.0645" x2="30.1934" y2="34.0645" gradientUnits="userSpaceOnUse">
<stop stop-color="#EA0000"/>
<stop offset="1" stop-color="#F5492F"/>
</linearGradient>
<linearGradient id="paint2_linear" x1="20.1289" y1="29.4192" x2="24.7741" y2="29.4192" gradientUnits="userSpaceOnUse">
<stop stop-color="#EA0000"/>
<stop offset="1" stop-color="#F5492F"/>
</linearGradient>
<linearGradient id="paint3_linear" x1="17.8063" y1="34.0647" x2="27.0967" y2="34.0647" gradientUnits="userSpaceOnUse">
<stop stop-color="#EA0000"/>
<stop offset="1" stop-color="#F5492F"/>
</linearGradient>
<linearGradient id="paint4_linear" x1="17.8063" y1="37.1614" x2="27.0967" y2="37.1614" gradientUnits="userSpaceOnUse">
<stop stop-color="#EA0000"/>
<stop offset="1" stop-color="#F5492F"/>
</linearGradient>
<linearGradient id="paint5_linear" x1="17.8063" y1="40.2581" x2="27.0967" y2="40.2581" gradientUnits="userSpaceOnUse">
<stop stop-color="#EA0000"/>
<stop offset="1" stop-color="#F5492F"/>
</linearGradient>
<clipPath id="clip0">
<rect x="-0.00012207" width="48" height="48" fill="white"/>
</clipPath>
</defs>
</svg>
